<svg id="svg" version="1.1" xmlns="http://www.w3.org/2000/svg" xmlns:xlink="http://www.w3.org/1999/xlink" width="400" height="400" viewBox="0, 0, 400,400"><g id="svgg"><path id="path0" d="M112.200 58.361 C 110.440 58.492,108.801 58.729,108.559 58.887 C 108.316 59.045,106.786 59.379,105.159 59.629 C 103.531 59.879,102.018 60.231,101.795 60.412 C 101.572 60.593,100.492 60.962,99.395 61.233 C 98.298 61.503,97.045 61.966,96.611 62.262 C 96.177 62.558,95.545 62.800,95.207 62.800 C 94.869 62.800,92.975 63.640,90.996 64.668 C 89.018 65.695,86.725 66.884,85.900 67.310 C 85.075 67.735,84.400 68.233,84.400 68.415 C 84.400 68.597,84.041 68.860,83.602 68.999 C 83.164 69.138,82.579 69.466,82.302 69.726 C 82.026 69.987,81.027 70.725,80.083 71.366 C 76.509 73.793,68.946 81.826,65.776 86.560 C 65.349 87.197,64.685 88.187,64.299 88.760 C 63.914 89.332,63.308 90.430,62.954 91.200 C 62.600 91.970,62.176 92.690,62.013 92.800 C 61.850 92.910,61.496 93.675,61.227 94.500 C 60.958 95.325,60.572 96.000,60.369 96.000 C 60.166 96.000,60.000 96.322,60.000 96.715 C 60.000 97.109,59.660 98.097,59.245 98.911 C 58.830 99.725,58.367 101.068,58.216 101.896 C 58.065 102.723,57.711 103.760,57.429 104.200 C 57.148 104.640,56.788 105.900,56.630 107.000 C 56.471 108.100,56.041 109.990,55.674 111.200 C 54.696 114.418,54.703 133.952,55.682 137.200 C 56.047 138.410,56.525 140.300,56.746 141.400 C 57.171 143.528,58.147 146.625,59.012 148.600 C 59.302 149.260,59.660 150.288,59.808 150.884 C 59.957 151.480,60.331 152.177,60.639 152.433 C 60.948 152.689,61.206 153.101,61.213 153.349 C 61.234 154.113,63.995 159.285,65.084 160.600 C 65.266 160.820,65.991 161.877,66.695 162.949 C 68.820 166.187,74.232 172.010,78.133 175.257 C 78.756 175.776,79.728 176.605,80.291 177.100 C 80.855 177.595,81.458 178.000,81.630 178.000 C 81.802 178.000,82.181 178.227,82.471 178.505 C 83.146 179.150,85.109 180.449,86.400 181.105 C 86.950 181.385,88.570 182.237,90.000 182.998 C 91.430 183.760,92.789 184.387,93.020 184.391 C 93.251 184.396,93.643 184.603,93.892 184.852 C 94.687 185.647,100.594 187.570,105.000 188.469 C 106.100 188.694,108.350 189.175,110.000 189.539 C 114.602 190.553,282.998 190.553,287.600 189.539 C 289.250 189.175,291.500 188.694,292.600 188.469 C 295.876 187.801,298.898 186.946,300.600 186.207 C 301.480 185.824,302.740 185.277,303.400 184.990 C 307.954 183.013,311.734 180.980,312.866 179.900 C 313.270 179.515,313.804 179.200,314.054 179.200 C 315.564 179.200,325.250 170.237,329.184 165.200 C 330.301 163.770,331.372 162.403,331.565 162.162 C 331.757 161.922,332.211 161.202,332.573 160.562 C 332.935 159.923,333.654 158.680,334.169 157.800 C 335.071 156.261,336.398 153.632,338.029 150.156 C 338.453 149.252,338.806 148.262,338.814 147.956 C 338.821 147.650,339.175 146.680,339.600 145.800 C 340.025 144.920,340.379 143.789,340.386 143.287 C 340.394 142.785,340.654 141.767,340.963 141.026 C 343.048 136.037,343.094 113.575,341.032 107.400 C 340.738 106.520,340.315 105.080,340.093 104.200 C 339.138 100.426,336.156 93.626,333.778 89.800 C 333.231 88.920,332.668 87.930,332.527 87.600 C 332.387 87.270,331.986 86.694,331.636 86.321 C 331.286 85.947,330.280 84.634,329.400 83.403 C 327.330 80.509,321.663 74.683,318.600 72.301 C 317.280 71.274,315.885 70.157,315.500 69.817 C 315.115 69.478,314.713 69.200,314.608 69.200 C 314.502 69.200,313.462 68.590,312.297 67.845 C 309.376 65.976,304.348 63.374,302.519 62.785 C 301.684 62.516,300.820 62.165,300.600 62.006 C 300.380 61.846,299.302 61.496,298.205 61.228 C 297.108 60.960,296.028 60.593,295.805 60.412 C 295.582 60.231,294.074 59.880,292.453 59.631 C 290.833 59.382,289.123 58.958,288.653 58.689 C 287.749 58.171,118.941 57.857,112.200 58.361 M276.956 91.323 C 280.559 93.190,283.155 97.550,283.184 101.780 L 283.200 104.160 259.500 127.800 C 233.737 153.496,233.863 153.389,229.600 153.367 C 226.951 153.352,221.600 150.713,221.600 149.420 C 221.600 149.281,221.203 148.631,220.718 147.975 C 219.236 145.970,219.395 140.320,221.000 137.989 C 222.235 136.194,264.769 93.489,267.105 91.698 C 269.556 89.819,273.746 89.660,276.956 91.323 M129.130 91.403 C 130.361 92.021,132.762 94.053,135.393 96.703 C 137.739 99.066,148.060 109.423,158.329 119.718 L 177.000 138.435 176.979 142.118 C 176.940 149.023,172.261 153.058,165.248 152.234 C 161.860 151.836,160.472 150.693,147.235 137.409 C 140.544 130.694,135.020 125.200,134.960 125.200 C 134.899 125.200,134.794 129.745,134.725 135.300 C 134.606 144.943,134.559 145.475,133.688 147.045 C 131.160 151.607,126.346 153.769,121.854 152.359 C 118.817 151.405,115.847 148.694,115.356 146.426 C 115.234 145.862,114.969 144.878,114.767 144.240 C 114.275 142.686,114.289 101.114,114.782 99.246 C 114.992 98.451,115.254 97.350,115.365 96.800 C 116.328 92.031,124.220 88.936,129.130 91.403 M171.288 91.283 C 173.326 92.335,174.681 93.629,176.016 95.800 L 177.000 97.400 177.106 112.600 C 177.209 127.344,177.133 128.587,176.112 128.868 C 174.917 129.197,157.643 111.161,157.363 109.290 C 156.781 105.409,157.388 97.441,158.395 95.756 C 161.281 90.925,166.849 88.994,171.288 91.283 M282.828 115.073 C 283.601 117.106,283.132 145.572,282.302 147.000 C 281.919 147.660,281.604 148.388,281.602 148.619 C 281.599 149.279,278.760 151.837,277.006 152.761 C 275.082 153.773,270.761 153.912,269.200 153.011 C 268.650 152.694,267.819 152.260,267.354 152.048 C 264.386 150.691,262.712 146.445,262.483 139.692 C 262.254 132.923,261.789 133.744,271.211 124.276 C 275.812 119.652,279.627 115.763,279.689 115.634 C 279.845 115.306,281.735 114.046,282.110 114.021 C 282.280 114.009,282.603 114.483,282.828 115.073 M111.627 210.440 C 111.091 210.653,109.291 211.008,107.627 211.228 C 105.962 211.447,104.240 211.792,103.800 211.994 C 103.360 212.196,102.010 212.622,100.800 212.942 C 96.759 214.009,90.122 216.942,86.600 219.216 C 85.940 219.643,84.952 220.218,84.405 220.496 C 83.859 220.773,83.139 221.236,82.805 221.524 C 82.472 221.811,81.112 222.891,79.783 223.924 C 76.554 226.430,74.750 228.101,71.574 231.525 C 70.335 232.862,66.000 238.342,66.000 238.573 C 66.000 238.702,65.406 239.661,64.681 240.704 C 63.488 242.419,61.474 246.333,59.281 251.200 C 58.835 252.190,58.342 253.630,58.187 254.400 C 58.031 255.170,57.676 256.250,57.399 256.800 C 57.121 257.350,56.762 258.772,56.601 259.961 C 56.440 261.150,56.022 262.770,55.673 263.561 C 54.717 265.727,54.752 286.212,55.716 288.718 C 56.080 289.663,56.500 291.373,56.650 292.518 C 56.800 293.663,57.152 294.960,57.432 295.400 C 57.712 295.840,58.071 296.920,58.231 297.800 C 58.390 298.680,58.746 299.760,59.021 300.200 C 59.296 300.640,59.643 301.583,59.792 302.295 C 59.940 303.008,60.209 303.682,60.389 303.793 C 60.569 303.904,61.369 305.301,62.167 306.898 C 63.672 309.908,64.119 310.652,66.300 313.777 C 67.015 314.802,67.600 315.805,67.600 316.006 C 67.600 316.207,67.960 316.565,68.400 316.800 C 68.840 317.035,69.200 317.394,69.200 317.596 C 69.200 317.798,69.605 318.385,70.100 318.900 C 70.595 319.415,72.091 320.999,73.424 322.418 C 74.758 323.838,76.626 325.630,77.576 326.400 C 78.525 327.170,79.610 328.070,79.986 328.400 C 80.362 328.730,80.948 329.180,81.289 329.400 C 81.629 329.620,82.873 330.461,84.054 331.269 C 85.234 332.077,87.100 333.207,88.200 333.780 C 89.300 334.354,90.470 334.967,90.800 335.143 C 93.521 336.596,94.835 337.200,95.279 337.202 C 95.566 337.204,96.250 337.436,96.800 337.718 C 99.326 339.014,106.521 340.901,111.600 341.601 C 115.019 342.072,282.581 342.072,286.000 341.601 C 293.151 340.616,303.063 337.550,306.800 335.167 C 307.130 334.956,308.022 334.500,308.782 334.152 C 311.588 332.870,316.431 329.416,321.335 325.200 C 322.867 323.883,327.216 319.307,328.367 317.800 C 329.040 316.920,329.818 315.937,330.095 315.615 C 330.373 315.293,330.780 314.724,331.000 314.350 C 331.220 313.976,331.968 312.862,332.661 311.873 C 333.355 310.884,334.037 309.714,334.177 309.274 C 334.317 308.833,334.694 308.254,335.015 307.987 C 335.337 307.720,335.600 307.188,335.600 306.805 C 335.600 306.422,335.960 305.650,336.400 305.091 C 336.840 304.531,337.206 303.832,337.214 303.537 C 337.221 303.242,337.575 302.280,338.000 301.400 C 338.425 300.520,338.779 299.595,338.786 299.344 C 338.794 299.093,339.156 298.103,339.591 297.144 C 340.026 296.185,340.387 294.950,340.394 294.400 C 340.400 293.850,340.660 292.910,340.973 292.312 C 343.033 288.363,343.074 265.916,341.032 259.800 C 340.738 258.920,340.312 257.480,340.085 256.600 C 339.597 254.711,338.597 251.904,337.782 250.140 C 337.462 249.446,337.200 248.665,337.200 248.403 C 337.200 248.141,336.840 247.469,336.400 246.909 C 335.960 246.350,335.600 245.659,335.600 245.375 C 335.600 245.090,335.375 244.613,335.100 244.315 C 334.825 244.016,334.071 242.789,333.425 241.586 C 332.779 240.384,331.564 238.529,330.725 237.464 C 329.886 236.399,329.200 235.379,329.200 235.197 C 329.200 234.587,318.605 224.119,317.696 223.830 C 317.203 223.674,316.800 223.407,316.800 223.238 C 316.800 222.944,312.657 220.128,310.294 218.815 C 304.907 215.821,298.385 213.046,295.702 212.608 C 294.768 212.455,293.911 212.180,293.798 211.997 C 293.684 211.813,292.378 211.535,290.896 211.378 C 289.413 211.221,287.390 210.849,286.400 210.551 C 284.174 209.880,113.299 209.771,111.627 210.440 M130.969 246.961 C 135.870 249.009,137.600 252.696,137.600 261.089 L 137.600 267.279 128.700 276.187 C 119.999 284.895,118.389 286.288,117.592 285.795 C 116.600 285.182,117.119 255.082,118.161 252.750 C 119.058 250.742,121.019 248.472,122.400 247.842 C 122.730 247.692,123.450 247.308,124.000 246.990 C 125.280 246.250,129.227 246.233,130.969 246.961 M175.000 247.746 C 180.747 250.683,182.519 257.272,178.993 262.598 C 178.061 264.005,134.666 307.400,132.940 308.651 C 130.837 310.174,125.222 310.365,123.818 308.961 C 123.510 308.652,123.050 308.400,122.797 308.400 C 120.811 308.400,117.200 302.022,117.200 298.513 C 117.200 295.672,116.070 296.975,134.919 278.083 C 161.918 251.022,165.030 248.000,165.895 248.000 C 166.339 248.000,166.918 247.740,167.181 247.422 C 168.157 246.247,172.411 246.423,175.000 247.746 M255.408 249.387 C 257.500 250.376,260.000 252.760,260.000 253.765 C 260.000 254.060,260.270 254.526,260.600 254.800 C 261.336 255.411,261.526 303.751,260.794 304.204 C 260.571 304.342,260.144 305.039,259.845 305.753 C 259.347 306.946,256.545 309.582,255.742 309.614 C 255.554 309.621,254.680 309.975,253.800 310.400 C 251.904 311.316,250.574 311.390,249.173 310.659 C 248.609 310.365,247.701 310.012,247.157 309.875 C 244.979 309.328,242.374 306.295,241.559 303.355 C 240.482 299.469,240.393 260.671,241.451 256.309 C 243.002 249.917,249.606 246.642,255.408 249.387 " stroke="none" fill="#fc0424" fill-rule="evenodd"></path><path id="path1" d="M0.000 200.000 L 0.000 400.000 200.000 400.000 L 400.000 400.000 400.000 200.000 L 400.000 0.000 200.000 0.000 L 0.000 0.000 0.000 200.000 M284.486 56.557 C 285.429 56.863,287.729 57.231,289.597 57.374 C 291.465 57.518,293.355 57.870,293.797 58.157 C 294.239 58.444,295.462 58.775,296.516 58.892 C 297.570 59.009,298.740 59.372,299.116 59.699 C 299.492 60.025,300.519 60.402,301.399 60.537 C 302.278 60.671,303.178 61.026,303.399 61.323 C 303.619 61.621,304.395 61.983,305.123 62.127 C 305.851 62.271,306.719 62.662,307.052 62.995 C 307.385 63.328,307.976 63.600,308.367 63.600 C 308.757 63.600,309.402 63.960,309.800 64.400 C 310.198 64.840,310.828 65.200,311.200 65.200 C 311.572 65.200,312.202 65.560,312.600 66.000 C 312.998 66.440,313.467 66.800,313.642 66.800 C 314.098 66.800,317.201 68.938,318.521 70.161 C 319.137 70.733,319.746 71.200,319.874 71.200 C 320.351 71.200,328.800 79.491,328.800 79.959 C 328.800 80.104,329.115 80.514,329.500 80.871 C 330.303 81.615,331.574 83.153,332.292 84.249 C 332.562 84.662,333.597 86.229,334.592 87.731 C 335.586 89.234,336.400 90.645,336.400 90.868 C 336.400 91.091,336.760 91.731,337.200 92.291 C 337.640 92.850,338.000 93.619,338.000 94.000 C 338.000 94.381,338.360 95.150,338.800 95.709 C 339.240 96.269,339.601 97.058,339.603 97.463 C 339.604 97.868,339.963 98.740,340.400 99.400 C 340.837 100.060,341.196 101.145,341.197 101.811 C 341.199 102.477,341.492 103.439,341.849 103.949 C 342.210 104.464,342.593 106.052,342.711 107.528 C 342.828 108.987,343.152 110.409,343.430 110.687 C 344.745 112.002,344.808 136.045,343.500 137.490 C 343.064 137.972,342.793 138.929,342.782 140.031 C 342.773 141.004,342.489 142.520,342.152 143.400 C 341.815 144.280,341.377 145.774,341.178 146.720 C 340.979 147.666,340.543 148.714,340.208 149.049 C 339.874 149.383,339.600 150.070,339.600 150.575 C 339.600 151.079,339.240 151.950,338.800 152.509 C 338.360 153.069,338.000 153.706,338.000 153.926 C 338.000 154.562,335.919 158.400,335.575 158.400 C 335.404 158.400,335.149 158.921,335.009 159.559 C 334.869 160.196,334.405 161.034,333.977 161.421 C 333.550 161.807,333.200 162.347,333.200 162.619 C 333.200 162.892,332.930 163.218,332.600 163.345 C 332.270 163.471,332.000 163.851,332.000 164.187 C 332.000 164.524,331.280 165.520,330.400 166.400 C 329.520 167.280,328.800 168.110,328.800 168.244 C 328.800 168.379,327.720 169.572,326.400 170.896 C 325.080 172.220,324.000 173.460,324.000 173.652 C 324.000 173.843,323.736 174.000,323.414 174.000 C 323.092 174.000,322.635 174.360,322.400 174.800 C 322.165 175.240,321.708 175.600,321.386 175.600 C 321.064 175.600,320.800 175.858,320.800 176.173 C 320.800 176.488,320.440 176.860,320.000 177.000 C 319.560 177.140,319.200 177.398,319.200 177.575 C 319.200 177.751,318.120 178.572,316.800 179.400 C 315.480 180.228,314.400 181.061,314.400 181.252 C 314.400 181.444,314.154 181.600,313.854 181.600 C 313.554 181.600,312.850 181.960,312.291 182.400 C 311.731 182.840,311.015 183.200,310.699 183.200 C 310.383 183.200,309.798 183.560,309.400 184.000 C 309.002 184.440,308.371 184.800,307.999 184.800 C 307.627 184.800,306.907 185.160,306.400 185.600 C 305.893 186.040,305.187 186.400,304.833 186.400 C 304.478 186.400,303.516 186.760,302.696 187.200 C 301.875 187.640,300.797 188.001,300.301 188.003 C 299.806 188.004,298.860 188.363,298.200 188.800 C 297.540 189.237,296.348 189.596,295.551 189.597 C 294.754 189.599,293.314 189.938,292.351 190.352 C 289.204 191.704,282.975 191.800,198.800 191.800 C 113.276 191.800,106.811 191.693,104.749 190.249 C 104.239 189.892,103.097 189.599,102.211 189.597 C 101.277 189.596,100.096 189.261,99.400 188.800 C 98.740 188.363,97.794 188.004,97.299 188.003 C 96.803 188.001,95.725 187.640,94.904 187.200 C 94.084 186.760,93.116 186.400,92.755 186.400 C 92.394 186.400,91.883 186.142,91.621 185.826 C 91.359 185.510,90.619 185.136,89.977 184.995 C 89.335 184.854,88.695 184.554,88.556 184.328 C 88.416 184.103,87.739 183.654,87.051 183.331 C 84.104 181.946,83.263 181.398,81.171 179.500 C 80.747 179.115,80.228 178.800,80.018 178.800 C 79.808 178.800,79.195 178.395,78.655 177.900 C 78.116 177.405,76.824 176.280,75.785 175.400 C 72.460 172.584,66.804 166.487,66.802 165.714 C 66.801 165.447,66.440 165.035,66.000 164.800 C 65.560 164.565,65.200 164.136,65.200 163.848 C 65.200 163.560,64.840 162.998,64.400 162.600 C 63.960 162.202,63.600 161.661,63.600 161.399 C 63.600 161.137,63.240 160.507,62.800 160.000 C 62.360 159.493,62.000 158.909,62.000 158.702 C 62.000 158.495,61.640 157.869,61.200 157.309 C 60.760 156.750,60.400 156.046,60.400 155.746 C 60.400 155.446,60.040 154.840,59.600 154.400 C 59.160 153.960,58.800 153.172,58.800 152.649 C 58.800 152.126,58.544 151.486,58.231 151.226 C 57.918 150.966,57.537 150.010,57.383 149.100 C 57.229 148.191,56.866 147.209,56.576 146.919 C 56.285 146.628,55.920 145.538,55.765 144.495 C 55.610 143.453,55.244 142.234,54.952 141.787 C 54.660 141.340,54.305 139.630,54.161 137.987 C 54.018 136.344,53.653 134.017,53.351 132.816 C 52.695 130.215,52.623 118.727,53.246 116.000 C 53.471 115.010,53.831 112.672,54.044 110.805 C 54.258 108.938,54.667 107.048,54.953 106.605 C 55.239 106.162,55.593 104.913,55.739 103.829 C 55.885 102.745,56.250 101.575,56.551 101.229 C 56.852 100.883,57.219 99.931,57.365 99.113 C 57.512 98.295,57.894 97.363,58.216 97.041 C 58.537 96.720,58.800 96.109,58.800 95.683 C 58.800 95.256,59.160 94.450,59.600 93.891 C 60.040 93.331,60.400 92.587,60.400 92.237 C 60.400 91.887,60.760 91.240,61.200 90.800 C 61.640 90.360,62.000 89.785,62.000 89.522 C 62.000 88.932,64.012 85.918,64.699 85.480 C 64.974 85.304,65.200 84.970,65.200 84.738 C 65.200 84.336,66.517 82.528,67.802 81.166 C 68.131 80.818,68.400 80.335,68.400 80.093 C 68.400 79.852,68.760 79.540,69.200 79.400 C 69.640 79.260,70.000 78.966,70.000 78.747 C 70.000 77.855,80.484 68.400,81.473 68.400 C 81.695 68.400,82.202 68.040,82.600 67.600 C 82.998 67.160,83.538 66.800,83.800 66.800 C 84.062 66.800,84.602 66.440,85.000 66.000 C 85.398 65.560,86.016 65.200,86.373 65.200 C 86.730 65.200,87.330 64.840,87.707 64.400 C 88.084 63.960,88.732 63.600,89.147 63.600 C 89.562 63.600,90.127 63.328,90.403 62.996 C 90.678 62.664,91.601 62.281,92.452 62.145 C 93.303 62.009,94.000 61.770,94.000 61.613 C 94.000 61.173,95.924 60.400,97.019 60.400 C 97.558 60.400,98.000 60.238,98.000 60.039 C 98.000 59.555,100.239 58.800,101.674 58.800 C 102.309 58.800,103.228 58.538,103.717 58.217 C 104.207 57.897,106.134 57.518,108.003 57.374 C 109.871 57.230,112.120 56.871,113.000 56.576 C 115.429 55.760,281.976 55.741,284.486 56.557 M269.223 92.308 C 267.621 93.113,222.400 138.170,222.400 138.961 C 222.400 139.253,222.040 139.950,221.600 140.509 C 220.652 141.715,220.551 144.147,221.389 145.600 C 221.706 146.150,222.136 146.960,222.345 147.400 C 223.187 149.175,225.794 151.125,227.427 151.203 C 233.970 151.513,230.512 154.260,257.896 127.005 L 280.800 104.211 280.800 100.759 C 280.800 97.914,280.660 97.129,280.000 96.291 C 279.560 95.731,279.200 95.077,279.200 94.837 C 279.200 94.597,278.913 94.400,278.563 94.400 C 278.212 94.400,277.841 94.078,277.738 93.685 C 277.351 92.205,271.357 91.235,269.223 92.308 M121.646 92.664 C 121.121 92.777,120.322 93.214,119.870 93.635 C 119.419 94.056,118.894 94.400,118.704 94.400 C 118.514 94.400,118.101 95.018,117.786 95.773 C 117.470 96.528,117.029 97.258,116.806 97.396 C 116.074 97.849,116.264 145.789,117.000 146.400 C 117.330 146.674,117.600 147.080,117.600 147.303 C 117.600 148.016,120.067 149.997,122.000 150.836 C 123.188 151.352,127.548 151.124,127.932 150.526 C 128.079 150.296,128.578 149.990,129.039 149.846 C 129.501 149.702,130.491 148.823,131.239 147.892 L 132.600 146.200 132.737 135.200 C 132.933 119.492,131.703 119.400,148.646 136.391 C 155.881 143.646,161.980 149.587,162.200 149.594 C 162.420 149.600,163.140 149.901,163.800 150.263 C 165.420 151.151,168.746 151.163,169.999 150.286 C 170.537 149.909,171.232 149.600,171.543 149.600 C 173.842 149.600,177.335 140.579,175.445 139.521 C 175.090 139.323,174.800 139.017,174.800 138.841 C 174.800 138.458,163.380 127.060,162.803 126.868 C 162.582 126.794,162.400 126.592,162.400 126.418 C 162.400 126.245,159.048 122.795,154.952 118.752 C 150.856 114.708,147.031 110.878,146.452 110.240 C 145.873 109.602,145.171 108.882,144.892 108.640 C 144.038 107.900,142.046 105.928,136.000 99.835 C 132.810 96.620,129.900 93.706,129.533 93.359 C 128.843 92.708,123.592 92.245,121.646 92.664 M163.989 92.722 C 162.838 93.038,160.000 95.498,160.000 96.180 C 160.000 96.428,159.640 97.337,159.200 98.200 C 158.528 99.517,158.400 100.559,158.400 104.688 C 158.400 109.113,158.480 109.677,159.200 110.293 C 159.640 110.670,160.000 111.208,160.000 111.489 C 160.000 111.770,160.194 112.000,160.431 112.000 C 160.965 112.000,163.200 114.198,163.200 114.723 C 163.200 114.934,163.560 115.201,164.000 115.316 C 164.440 115.431,164.800 115.812,164.800 116.163 C 164.800 116.513,164.977 116.800,165.193 116.800 C 165.705 116.800,170.800 121.895,170.800 122.407 C 170.800 122.623,171.087 122.800,171.437 122.800 C 171.788 122.800,172.169 123.160,172.284 123.600 C 172.399 124.040,172.759 124.400,173.084 124.400 C 173.409 124.400,173.764 124.742,173.874 125.160 C 173.983 125.578,174.506 126.004,175.036 126.105 L 176.000 126.289 176.000 112.794 C 176.000 101.285,175.912 99.225,175.400 98.800 C 175.070 98.526,174.800 97.891,174.800 97.388 C 174.800 94.192,168.513 91.478,163.989 92.722 M272.656 124.944 L 264.711 132.907 264.741 139.850 C 264.769 146.415,264.820 146.863,265.685 148.082 C 267.781 151.038,271.601 152.674,274.250 151.751 C 275.103 151.455,276.070 151.204,276.400 151.193 C 277.091 151.172,279.200 149.420,279.200 148.868 C 279.200 148.664,279.564 148.251,280.010 147.949 C 280.803 147.412,280.818 147.077,280.710 132.191 L 280.600 116.982 272.656 124.944 M285.690 208.690 C 288.899 208.945,291.116 209.314,291.690 209.688 C 292.190 210.015,293.547 210.373,294.704 210.483 C 295.861 210.593,297.135 210.980,297.536 211.342 C 297.936 211.704,298.701 212.000,299.237 212.000 C 299.773 212.000,300.884 212.360,301.704 212.800 C 302.525 213.240,303.484 213.600,303.835 213.600 C 304.187 213.600,304.931 213.960,305.491 214.400 C 306.050 214.840,306.770 215.200,307.091 215.200 C 307.411 215.200,308.131 215.560,308.691 216.000 C 309.250 216.440,310.004 216.800,310.365 216.800 C 310.726 216.800,311.330 217.160,311.707 217.600 C 312.084 218.040,312.636 218.400,312.934 218.400 C 313.232 218.400,313.802 218.760,314.200 219.200 C 314.598 219.640,315.172 220.000,315.475 220.000 C 315.777 220.000,316.129 220.270,316.255 220.600 C 316.382 220.930,316.654 221.200,316.860 221.200 C 318.435 221.200,332.000 234.865,332.000 236.451 C 332.000 236.643,332.315 237.139,332.700 237.553 C 333.923 238.867,334.800 240.148,334.800 240.619 C 334.800 240.871,335.144 241.387,335.564 241.767 C 335.984 242.148,336.443 242.917,336.584 243.478 C 336.724 244.038,337.101 244.758,337.420 245.077 C 337.739 245.396,338.000 246.066,338.000 246.567 C 338.000 247.067,338.360 247.802,338.800 248.200 C 339.240 248.598,339.600 249.363,339.600 249.899 C 339.600 250.435,339.960 251.331,340.400 251.891 C 340.840 252.450,341.200 253.474,341.200 254.165 C 341.200 254.856,341.483 255.827,341.830 256.321 C 342.176 256.816,342.549 258.251,342.659 259.510 C 342.768 260.770,343.160 262.515,343.529 263.388 C 344.511 265.711,344.538 287.316,343.561 288.818 C 343.210 289.358,342.823 290.914,342.701 292.275 C 342.580 293.636,342.192 295.161,341.840 295.664 C 341.488 296.167,341.200 297.144,341.200 297.835 C 341.200 298.526,340.840 299.550,340.400 300.109 C 339.960 300.669,339.600 301.519,339.600 302.000 C 339.600 302.481,339.240 303.331,338.800 303.891 C 338.360 304.450,338.000 305.137,338.000 305.417 C 338.000 306.132,335.953 310.000,335.575 310.000 C 335.404 310.000,335.145 310.541,334.999 311.203 C 334.854 311.865,334.390 312.591,333.967 312.817 C 333.545 313.043,333.200 313.582,333.200 314.014 C 333.200 314.446,333.025 314.800,332.810 314.800 C 332.596 314.800,332.159 315.295,331.839 315.900 C 331.519 316.505,330.730 317.568,330.086 318.262 C 329.442 318.956,328.805 319.811,328.670 320.162 C 328.535 320.513,328.149 320.800,327.813 320.800 C 327.476 320.800,327.200 320.999,327.200 321.241 C 327.200 321.484,325.959 322.924,324.441 324.441 C 322.924 325.959,321.484 327.200,321.241 327.200 C 320.999 327.200,320.800 327.470,320.800 327.800 C 320.800 328.130,320.646 328.400,320.458 328.400 C 320.271 328.400,319.656 328.805,319.092 329.300 C 317.097 331.053,315.794 331.989,315.343 331.995 C 315.091 331.998,314.782 332.270,314.655 332.600 C 314.529 332.930,314.177 333.200,313.874 333.200 C 313.571 333.200,312.907 333.560,312.400 334.000 C 311.893 334.440,311.248 334.800,310.967 334.800 C 310.687 334.800,310.219 335.028,309.929 335.306 C 309.162 336.039,305.231 338.000,304.526 338.000 C 304.196 338.000,303.469 338.360,302.909 338.800 C 302.350 339.240,301.556 339.600,301.145 339.600 C 300.733 339.600,299.725 339.960,298.904 340.400 C 298.084 340.840,296.921 341.200,296.321 341.200 C 295.721 341.200,294.316 341.560,293.200 342.000 C 291.925 342.502,290.227 342.800,288.634 342.800 C 287.239 342.800,285.451 343.070,284.662 343.400 C 282.552 344.281,115.249 344.313,112.908 343.433 C 112.079 343.121,109.960 342.778,108.200 342.670 C 106.417 342.561,104.469 342.194,103.800 341.840 C 103.140 341.491,101.949 341.204,101.154 341.202 C 100.317 341.201,99.280 340.863,98.691 340.400 C 98.131 339.960,97.288 339.600,96.816 339.600 C 96.344 339.600,95.293 339.253,94.479 338.829 C 93.666 338.405,91.830 337.496,90.400 336.809 C 88.970 336.121,87.260 335.208,86.600 334.779 C 85.940 334.349,84.815 333.726,84.100 333.394 C 83.385 333.061,82.800 332.615,82.800 332.402 C 82.800 332.189,82.350 331.902,81.800 331.764 C 81.250 331.626,80.800 331.263,80.800 330.957 C 80.800 330.650,80.603 330.400,80.363 330.400 C 79.928 330.400,78.518 329.407,76.531 327.700 C 75.955 327.205,75.329 326.800,75.142 326.800 C 74.954 326.800,74.800 326.530,74.800 326.200 C 74.800 325.870,74.627 325.600,74.416 325.600 C 73.763 325.600,66.805 318.071,66.802 317.362 C 66.801 317.121,66.440 316.598,66.000 316.200 C 65.560 315.802,65.200 315.234,65.200 314.938 C 65.200 314.642,65.025 314.400,64.810 314.400 C 64.596 314.400,64.123 313.824,63.758 313.120 C 63.394 312.415,62.850 311.592,62.548 311.291 C 62.247 310.990,62.000 310.478,62.000 310.155 C 62.000 309.831,61.640 309.180,61.200 308.708 C 60.760 308.236,60.400 307.596,60.400 307.288 C 60.400 306.979,60.040 306.269,59.600 305.709 C 59.160 305.150,58.800 304.288,58.800 303.795 C 58.800 303.302,58.535 302.678,58.211 302.409 C 57.886 302.140,57.504 301.263,57.360 300.460 C 57.216 299.657,56.852 298.717,56.551 298.371 C 56.250 298.025,55.885 296.855,55.739 295.771 C 55.593 294.687,55.223 293.413,54.917 292.940 C 54.611 292.467,54.261 290.757,54.139 289.140 C 54.017 287.523,53.666 285.312,53.359 284.227 C 52.694 281.881,52.617 271.153,53.246 268.400 C 53.471 267.410,53.831 265.072,54.044 263.205 C 54.258 261.338,54.669 259.448,54.957 259.005 C 55.246 258.562,55.615 257.300,55.777 256.200 C 55.939 255.100,56.302 253.930,56.585 253.600 C 56.867 253.270,57.216 252.343,57.360 251.540 C 57.504 250.737,57.886 249.860,58.211 249.591 C 58.535 249.322,58.800 248.698,58.800 248.205 C 58.800 247.712,59.160 246.850,59.600 246.291 C 60.040 245.731,60.400 244.985,60.400 244.633 C 60.400 244.281,60.760 243.684,61.200 243.307 C 61.640 242.930,62.000 242.300,62.000 241.907 C 62.000 241.514,62.360 240.884,62.800 240.507 C 63.240 240.130,63.600 239.608,63.600 239.347 C 63.600 239.086,64.320 237.961,65.200 236.848 C 66.080 235.734,66.800 234.712,66.800 234.576 C 66.800 233.896,77.843 222.800,78.520 222.800 C 78.649 222.800,79.440 222.171,80.278 221.402 C 81.115 220.633,82.027 220.003,82.304 220.002 C 82.581 220.001,83.116 219.640,83.493 219.200 C 83.870 218.760,84.380 218.400,84.627 218.400 C 84.874 218.400,85.402 218.040,85.800 217.600 C 86.198 217.160,86.906 216.800,87.373 216.800 C 87.840 216.800,88.530 216.440,88.907 216.000 C 89.284 215.560,89.954 215.200,90.396 215.200 C 90.838 215.200,91.560 214.840,92.000 214.400 C 92.440 213.960,93.237 213.600,93.771 213.600 C 94.306 213.600,95.031 213.312,95.382 212.960 C 95.734 212.609,96.782 212.225,97.711 212.108 C 98.640 211.991,99.713 211.622,100.096 211.289 C 100.479 210.956,101.739 210.593,102.896 210.483 C 104.053 210.373,105.402 210.020,105.894 209.699 C 106.505 209.301,108.779 208.999,113.073 208.746 C 116.529 208.542,119.444 208.289,119.550 208.183 C 119.938 207.796,280.596 208.286,285.690 208.690 M125.400 248.400 C 124.520 248.825,123.584 249.179,123.321 249.186 C 122.697 249.204,120.800 250.964,120.800 251.526 C 120.800 251.765,120.485 252.136,120.100 252.352 C 119.256 252.824,118.764 282.800,119.601 282.800 C 119.837 282.800,120.817 281.990,121.779 281.000 C 122.741 280.010,123.704 279.200,123.918 279.200 C 124.132 279.200,124.401 278.840,124.516 278.400 C 124.631 277.960,124.991 277.600,125.316 277.600 C 125.641 277.600,126.001 277.240,126.116 276.800 C 126.231 276.360,126.591 276.000,126.916 276.000 C 127.241 276.000,127.601 275.640,127.716 275.200 C 127.831 274.760,128.212 274.400,128.563 274.400 C 128.913 274.400,129.200 274.211,129.200 273.981 C 129.200 273.750,130.595 272.175,132.300 270.481 L 135.400 267.400 135.400 260.068 C 135.400 253.546,135.323 252.679,134.700 252.224 C 134.315 251.942,134.000 251.572,134.000 251.402 C 134.000 250.823,131.971 249.208,130.910 248.942 C 130.329 248.796,129.391 248.435,128.827 248.141 C 127.515 247.456,127.324 247.471,125.400 248.400 M168.400 248.909 L 166.200 249.280 142.674 272.740 L 119.148 296.200 119.274 299.429 C 119.369 301.850,119.575 302.833,120.100 303.357 C 120.485 303.742,120.800 304.269,120.800 304.529 C 120.800 305.255,123.218 307.015,125.000 307.585 C 125.880 307.866,126.771 308.255,126.980 308.448 C 127.573 308.997,128.542 308.869,130.568 307.973 C 132.585 307.081,177.270 262.869,177.781 261.260 C 177.918 260.828,178.294 260.373,178.615 260.250 C 179.315 259.981,179.485 253.600,178.791 253.600 C 178.567 253.600,178.162 253.105,177.892 252.500 C 176.585 249.575,172.844 248.159,168.400 248.909 M245.994 252.127 C 242.449 255.682,242.800 252.659,242.800 279.600 C 242.800 306.522,242.455 303.522,245.956 307.037 L 247.711 308.800 251.072 308.800 C 255.760 308.800,258.102 307.109,259.083 303.016 C 260.387 297.572,259.633 255.038,258.210 253.800 C 257.957 253.580,257.632 253.085,257.488 252.700 C 257.343 252.315,256.958 252.000,256.632 252.000 C 256.306 252.000,255.864 251.685,255.648 251.300 C 255.329 250.728,254.573 250.575,251.522 250.465 L 247.787 250.329 245.994 252.127 " stroke="none" fill="#fcfbfb" fill-rule="evenodd"></path><path id="path2" d="M111.800 57.409 C 109.160 57.685,106.100 58.188,105.000 58.528 C 102.806 59.204,103.351 59.447,105.603 58.796 C 109.359 57.710,117.048 57.607,199.400 57.545 C 246.480 57.510,284.010 57.345,282.800 57.180 C 278.756 56.627,117.206 56.843,111.800 57.409 M286.800 57.869 C 290.245 58.218,298.494 60.415,303.000 62.184 L 303.800 62.498 303.000 61.906 C 302.560 61.580,301.480 61.093,300.600 60.822 C 299.720 60.552,298.433 60.077,297.740 59.766 C 297.046 59.454,296.236 59.198,295.940 59.195 C 295.643 59.193,293.960 58.835,292.200 58.400 C 290.440 57.965,288.190 57.636,287.200 57.669 C 285.654 57.720,285.598 57.748,286.800 57.869 M99.400 60.000 C 97.350 60.990,97.986 60.990,100.800 60.000 C 102.235 59.495,102.652 59.226,102.000 59.227 C 101.450 59.227,100.280 59.575,99.400 60.000 M95.000 61.600 C 93.447 62.629,94.182 62.629,96.200 61.600 C 97.231 61.075,97.500 60.801,96.985 60.803 C 96.553 60.804,95.660 61.163,95.000 61.600 M89.100 64.312 C 87.175 65.340,85.600 66.342,85.600 66.539 C 85.600 66.737,85.825 66.712,86.100 66.484 C 86.375 66.256,88.218 65.244,90.196 64.235 C 92.175 63.226,93.525 62.410,93.196 62.422 C 92.868 62.434,91.025 63.284,89.100 64.312 M307.223 64.150 C 309.106 65.097,311.962 66.756,313.569 67.836 C 315.177 68.916,316.952 70.104,317.513 70.475 C 321.343 73.008,329.158 81.352,332.617 86.600 C 334.336 89.209,334.536 89.550,336.229 92.751 C 336.854 93.934,337.437 94.688,337.524 94.428 C 337.611 94.167,337.428 93.649,337.118 93.277 C 336.808 92.905,336.341 92.150,336.080 91.600 C 335.539 90.458,335.292 90.050,332.815 86.200 C 331.824 84.660,330.902 83.310,330.766 83.200 C 330.630 83.090,329.703 81.994,328.708 80.765 C 325.069 76.274,319.153 70.899,314.600 67.945 C 310.550 65.318,305.092 62.391,304.288 62.414 C 304.019 62.422,305.340 63.203,307.223 64.150 M82.200 68.453 C 76.638 72.283,66.088 82.622,66.908 83.441 C 67.029 83.563,67.843 82.703,68.717 81.531 C 71.066 78.379,77.385 72.423,81.291 69.681 C 84.741 67.259,85.328 66.800,84.978 66.801 C 84.770 66.801,83.520 67.545,82.200 68.453 M64.326 86.777 C 62.114 90.117,57.587 99.238,57.632 100.266 C 57.656 100.827,57.715 100.858,57.883 100.400 C 59.242 96.696,62.461 90.432,64.819 86.900 C 65.884 85.305,66.622 84.000,66.460 84.000 C 66.298 84.000,65.338 85.249,64.326 86.777 M122.600 91.357 C 119.348 92.380,116.000 95.263,116.000 97.040 C 116.000 97.416,117.595 95.349,117.622 94.937 C 117.667 94.256,120.062 92.718,122.300 91.933 C 125.609 90.773,125.835 90.339,122.600 91.357 M165.400 91.165 C 159.561 92.629,157.971 95.460,158.081 104.194 L 158.162 110.600 158.381 104.000 C 158.624 96.679,158.980 95.478,161.484 93.526 C 166.147 89.891,172.384 91.238,175.025 96.449 L 176.010 98.393 175.905 113.069 L 175.800 127.745 167.272 119.234 C 162.581 114.553,158.671 110.795,158.583 110.883 C 158.495 110.971,162.345 114.952,167.138 119.729 C 171.931 124.506,175.976 128.291,176.126 128.141 C 176.980 127.287,176.403 97.964,175.500 96.310 C 173.414 92.490,169.028 90.256,165.400 91.165 M268.600 91.456 C 265.564 93.036,220.195 139.128,220.942 139.875 C 221.051 139.985,221.433 139.510,221.790 138.820 C 222.581 137.290,266.594 93.240,268.522 92.048 C 274.895 88.109,284.785 97.701,281.220 104.363 C 280.752 105.237,236.851 149.118,235.309 150.252 C 229.050 154.857,221.072 150.946,220.697 143.090 L 220.559 140.200 220.479 143.165 C 220.359 147.650,222.258 150.334,226.800 152.100 C 232.328 154.248,231.665 154.755,258.900 127.562 L 282.400 104.099 282.400 102.121 C 282.400 94.439,274.541 88.365,268.600 91.456 M127.660 92.052 C 129.861 92.819,175.167 137.239,176.072 139.516 C 176.310 140.114,176.347 140.101,176.372 139.415 C 176.391 138.892,168.821 131.037,153.700 115.889 C 130.944 93.092,128.783 91.146,126.313 91.232 C 125.762 91.251,126.297 91.576,127.660 92.052 M337.601 95.538 C 337.601 95.834,337.864 96.554,338.187 97.138 C 338.510 97.722,339.223 99.280,339.771 100.600 C 340.319 101.920,340.775 102.635,340.784 102.189 C 340.793 101.743,340.557 101.023,340.260 100.589 C 339.963 100.155,339.599 99.303,339.451 98.695 C 339.130 97.375,337.604 94.769,337.601 95.538 M115.470 100.400 C 115.288 102.050,115.198 112.864,115.270 124.432 L 115.400 145.464 116.600 147.382 C 119.811 152.513,126.273 153.574,130.741 149.704 C 133.710 147.131,133.999 145.805,134.000 134.749 C 134.000 127.133,134.109 125.208,134.560 124.833 C 135.015 124.456,137.487 126.734,147.660 136.905 C 155.153 144.397,160.972 149.888,162.119 150.549 C 165.697 152.612,171.395 151.817,174.094 148.878 L 175.000 147.891 174.100 148.360 C 173.605 148.617,173.200 148.959,173.200 149.120 C 173.200 149.951,169.206 151.250,166.651 151.250 C 162.818 151.250,162.598 151.077,148.157 136.703 C 138.816 127.404,135.108 123.959,134.557 124.065 C 133.844 124.201,133.787 124.816,133.582 134.605 C 133.320 147.113,133.238 147.406,129.178 150.485 C 126.016 152.882,119.417 151.321,117.096 147.626 L 116.200 146.200 116.000 121.800 C 115.868 105.743,115.687 98.426,115.470 100.400 M56.650 102.791 C 56.293 103.685,56.000 104.659,56.000 104.956 C 56.000 105.253,55.640 106.623,55.200 108.000 C 54.760 109.377,54.425 111.336,54.456 112.352 L 54.513 114.200 54.802 112.200 C 55.199 109.446,56.345 104.906,57.099 103.096 C 57.443 102.269,57.630 101.496,57.513 101.379 C 57.396 101.262,57.008 101.898,56.650 102.791 M340.814 103.674 C 340.806 104.045,340.995 104.855,341.233 105.474 C 341.472 106.093,341.812 107.320,341.989 108.200 C 342.280 109.640,342.317 109.679,342.356 108.585 C 342.380 107.916,342.046 106.386,341.614 105.185 C 341.182 103.983,340.822 103.303,340.814 103.674 M342.441 110.800 C 342.434 111.350,342.685 112.970,343.000 114.400 C 343.794 118.009,343.798 130.065,343.007 133.800 C 342.506 136.164,342.193 139.459,342.589 138.200 C 344.201 133.069,344.503 116.473,343.068 111.800 C 342.666 110.489,342.450 110.145,342.441 110.800 M53.861 117.100 C 53.549 120.401,53.595 128.538,53.943 131.800 C 54.085 133.120,54.200 129.745,54.200 124.300 C 54.200 118.855,54.181 114.400,54.158 114.400 C 54.135 114.400,54.001 115.615,53.861 117.100 M272.193 124.025 L 263.800 132.449 263.664 138.325 C 263.494 145.663,263.909 147.773,265.918 149.790 C 267.423 151.301,270.305 153.028,270.687 152.647 C 270.802 152.532,270.028 152.024,268.966 151.519 C 264.741 149.506,263.831 146.957,264.066 137.799 L 264.200 132.600 272.447 124.382 C 276.983 119.863,280.898 116.233,281.147 116.316 C 281.743 116.514,281.762 143.808,281.168 146.400 C 280.449 149.537,277.200 152.091,273.000 152.819 L 271.000 153.166 273.213 153.021 C 277.137 152.764,280.534 150.049,281.747 146.202 C 282.300 144.446,282.400 141.949,282.400 129.865 L 282.400 115.600 281.493 115.600 C 280.846 115.600,278.191 118.005,272.193 124.025 M54.464 135.864 C 54.429 136.780,54.758 138.670,55.195 140.064 C 55.632 141.459,55.998 142.960,56.008 143.400 C 56.019 143.840,56.375 144.920,56.800 145.800 C 57.225 146.680,57.579 147.643,57.586 147.940 C 57.594 148.236,57.894 149.136,58.254 149.940 C 59.809 153.409,61.359 156.615,61.571 156.800 C 61.697 156.910,62.241 157.875,62.779 158.945 C 63.318 160.015,64.285 161.545,64.927 162.345 C 65.570 163.145,66.499 164.430,66.992 165.200 C 69.317 168.830,77.574 176.596,82.960 180.220 C 85.716 182.075,86.414 182.469,90.400 184.423 C 92.710 185.556,95.110 186.734,95.732 187.041 C 96.355 187.349,97.165 187.595,97.532 187.590 C 97.900 187.584,96.760 186.950,95.000 186.181 C 79.948 179.603,68.647 169.407,61.771 156.200 C 60.969 154.660,60.189 153.220,60.038 153.000 C 59.761 152.595,58.628 149.698,57.458 146.400 C 56.601 143.981,54.900 137.338,54.694 135.600 C 54.532 134.238,54.526 134.245,54.464 135.864 M341.667 141.048 C 340.975 144.097,338.834 150.376,338.141 151.389 C 337.843 151.823,337.601 152.453,337.602 152.789 C 337.604 153.125,337.885 152.863,338.227 152.207 C 339.936 148.929,342.591 140.670,342.341 139.407 C 342.263 139.016,341.960 139.754,341.667 141.048 M176.063 142.600 C 176.013 143.961,175.720 145.336,175.387 145.776 C 175.064 146.204,174.808 146.834,174.818 147.176 C 174.827 147.519,175.196 147.116,175.637 146.281 C 176.240 145.138,176.403 144.197,176.295 142.481 L 176.151 140.200 176.063 142.600 M335.085 157.552 C 328.249 169.743,317.154 179.823,304.600 185.248 C 300.122 187.183,299.352 187.581,300.068 187.591 C 300.435 187.596,301.245 187.336,301.868 187.014 C 302.490 186.692,304.800 185.575,307.000 184.533 C 315.808 180.357,331.600 166.979,331.600 163.693 C 331.600 163.476,331.869 163.075,332.197 162.802 C 333.142 162.018,337.762 154.029,337.451 153.718 C 337.375 153.642,336.311 155.367,335.085 157.552 M98.800 187.867 C 99.130 187.980,99.940 188.310,100.600 188.601 C 101.260 188.893,102.700 189.262,103.800 189.422 C 104.900 189.583,106.498 189.958,107.350 190.257 C 108.203 190.556,109.733 190.776,110.750 190.747 L 112.600 190.693 110.800 190.412 C 107.436 189.886,102.605 188.780,101.092 188.189 C 100.262 187.865,99.272 187.614,98.892 187.632 C 98.347 187.656,98.327 187.706,98.800 187.867 M296.578 188.164 C 295.472 188.645,291.186 189.650,287.000 190.410 L 285.400 190.700 287.086 190.750 C 288.013 190.777,289.543 190.546,290.486 190.236 C 291.429 189.925,293.010 189.547,294.000 189.394 C 294.990 189.242,296.340 188.882,297.000 188.594 C 297.660 188.307,298.470 187.980,298.800 187.867 C 299.211 187.727,299.148 187.658,298.600 187.647 C 298.160 187.638,297.250 187.871,296.578 188.164 M155.932 191.100 C 179.765 191.157,218.645 191.157,242.332 191.100 C 266.019 191.043,246.520 190.996,199.000 190.996 C 151.480 190.996,132.099 191.043,155.932 191.100 M156.900 209.100 C 179.945 209.157,217.655 209.157,240.700 209.100 C 263.745 209.043,244.890 208.996,198.800 208.996 C 152.710 208.996,133.855 209.043,156.900 209.100 M108.800 209.661 C 105.280 210.615,105.000 210.718,105.803 210.759 C 106.244 210.782,107.234 210.608,108.003 210.374 C 108.771 210.140,110.660 209.804,112.200 209.628 L 115.000 209.309 112.600 209.295 C 111.280 209.288,109.570 209.453,108.800 209.661 M285.400 209.628 C 286.940 209.804,288.829 210.140,289.597 210.374 C 290.366 210.608,291.356 210.782,291.797 210.759 C 292.611 210.718,292.192 210.570,288.600 209.635 C 287.720 209.406,286.010 209.239,284.800 209.264 L 282.600 209.309 285.400 209.628 M101.200 211.600 C 98.853 212.585,99.565 212.593,102.600 211.616 C 103.996 211.166,104.582 210.843,104.000 210.844 C 103.450 210.844,102.190 211.185,101.200 211.600 M293.800 211.171 C 294.460 211.331,295.393 211.672,295.874 211.931 C 296.354 212.189,297.074 212.390,297.474 212.378 C 297.873 212.365,297.390 212.015,296.400 211.600 C 295.410 211.185,294.150 210.853,293.600 210.863 C 292.701 210.880,292.721 210.911,293.800 211.171 M96.400 213.015 C 95.850 213.314,94.536 213.948,93.479 214.425 C 92.423 214.901,91.630 215.364,91.718 215.452 C 91.806 215.540,92.941 215.142,94.239 214.569 C 98.784 212.561,99.053 212.416,98.200 212.446 C 97.760 212.461,96.950 212.717,96.400 213.015 M300.200 213.200 C 301.080 213.625,301.939 213.979,302.108 213.986 C 302.895 214.021,309.748 217.587,312.800 219.550 C 320.535 224.524,329.675 233.528,332.951 239.400 C 333.320 240.060,334.060 241.320,334.598 242.200 C 335.135 243.080,335.973 244.600,336.461 245.579 C 336.949 246.557,337.421 247.136,337.512 246.865 C 337.602 246.595,337.480 246.138,337.242 245.850 C 337.003 245.563,336.246 244.264,335.559 242.964 C 334.871 241.664,334.060 240.316,333.755 239.969 C 333.450 239.621,333.200 239.227,333.200 239.093 C 333.200 237.631,320.317 223.608,318.421 223.007 C 317.970 222.863,317.600 222.604,317.600 222.430 C 317.600 222.256,316.499 221.413,315.153 220.557 C 313.807 219.701,312.232 218.692,311.653 218.316 C 308.864 216.504,299.992 212.376,298.969 212.414 C 298.766 212.421,299.320 212.775,300.200 213.200 M88.000 217.066 C 83.595 219.486,78.508 223.135,77.845 224.350 C 77.650 224.707,78.100 224.438,78.845 223.751 C 79.590 223.063,81.550 221.645,83.200 220.598 C 84.850 219.552,86.688 218.359,87.284 217.948 C 87.880 217.536,88.510 217.199,88.684 217.197 C 88.858 217.196,89.540 216.837,90.200 216.400 C 92.135 215.119,90.819 215.517,88.000 217.066 M73.400 228.133 C 71.640 229.958,69.570 232.170,68.800 233.048 C 67.009 235.091,62.307 242.040,62.551 242.284 C 62.653 242.386,63.046 241.959,63.425 241.335 C 63.804 240.711,64.455 239.704,64.870 239.099 C 65.286 238.493,66.074 237.337,66.622 236.530 C 67.916 234.623,71.099 231.030,74.564 227.564 C 76.084 226.044,77.164 224.803,76.964 224.807 C 76.764 224.811,75.160 226.308,73.400 228.133 M59.831 247.353 C 58.604 249.896,57.600 252.232,57.600 252.545 C 57.600 252.857,57.244 253.897,56.809 254.856 C 56.374 255.815,56.032 257.050,56.050 257.600 C 56.080 258.527,56.106 258.512,56.413 257.400 C 56.595 256.740,57.218 254.940,57.798 253.400 C 58.378 251.860,59.047 250.080,59.284 249.445 C 59.522 248.810,60.326 247.121,61.071 245.691 C 61.816 244.262,62.344 243.011,62.244 242.911 C 62.144 242.811,61.058 244.810,59.831 247.353 M122.918 248.260 C 118.276 250.965,117.919 252.598,118.077 270.395 C 118.192 283.331,118.245 284.198,118.924 284.329 C 119.667 284.471,135.363 269.143,136.333 267.326 C 136.942 266.186,136.951 256.577,136.345 254.077 C 135.583 250.933,131.830 247.223,129.400 247.212 C 128.947 247.209,129.469 247.614,130.600 248.142 C 135.501 250.433,136.131 252.023,135.930 261.600 L 135.800 267.800 127.666 275.903 C 123.192 280.359,119.367 283.903,119.166 283.779 C 118.753 283.524,118.728 254.320,119.140 252.909 C 119.558 251.476,122.016 249.156,124.189 248.144 C 125.295 247.629,125.840 247.224,125.400 247.244 C 124.960 247.264,123.843 247.721,122.918 248.260 M167.200 248.107 C 165.198 248.886,162.876 251.083,141.441 272.472 L 117.882 295.980 118.127 298.690 C 118.849 306.681,125.893 311.677,131.911 308.467 C 133.424 307.661,177.102 264.162,178.666 261.904 C 179.790 260.282,180.399 255.853,179.736 254.124 C 179.513 253.543,179.400 254.419,179.400 256.724 C 179.400 261.324,181.082 259.341,155.353 285.081 C 131.363 309.082,131.688 308.796,128.344 308.799 C 125.483 308.800,120.800 306.671,120.800 305.368 C 120.800 305.194,120.413 304.640,119.941 304.137 C 119.038 303.176,118.420 298.367,118.936 296.313 C 119.160 295.421,163.030 251.221,165.200 249.700 C 167.974 247.758,170.618 247.325,173.386 248.360 C 176.054 249.359,176.651 249.793,178.387 252.000 C 178.819 252.550,179.179 252.803,179.187 252.561 C 179.213 251.688,176.209 249.071,174.117 248.146 C 171.519 246.997,170.076 246.989,167.200 248.107 M337.601 247.938 C 337.601 248.234,337.864 248.954,338.187 249.538 C 338.510 250.122,339.223 251.680,339.771 253.000 C 340.319 254.320,340.775 255.084,340.784 254.699 C 340.793 254.313,340.440 253.325,340.000 252.504 C 339.560 251.684,339.200 250.789,339.200 250.516 C 339.200 250.243,338.841 249.430,338.401 248.710 C 337.962 247.989,337.602 247.642,337.601 247.938 M249.300 249.248 C 247.400 249.796,247.712 250.066,249.910 249.774 C 254.019 249.229,257.757 251.323,259.431 255.108 L 260.400 257.300 260.400 279.600 L 260.400 301.900 259.414 304.050 C 256.325 310.781,247.443 311.634,243.625 305.566 C 243.089 304.714,242.568 304.099,242.467 304.199 C 242.114 304.553,244.216 307.224,245.617 308.203 C 250.654 311.724,256.841 310.195,259.558 304.758 L 260.800 302.272 260.796 279.636 L 260.792 257.000 259.856 254.989 C 258.326 251.703,253.437 248.383,250.800 248.838 C 250.690 248.857,250.015 249.041,249.300 249.248 M245.156 251.330 C 243.610 252.750,242.177 254.711,242.471 255.004 C 242.569 255.103,243.089 254.471,243.625 253.600 C 244.161 252.729,244.915 251.910,245.300 251.781 C 245.685 251.652,246.000 251.372,246.000 251.160 C 246.000 250.948,246.405 250.611,246.900 250.412 C 247.409 250.208,247.540 250.041,247.200 250.027 C 246.870 250.014,245.950 250.600,245.156 251.330 M241.859 257.700 C 241.494 260.743,241.600 299.867,241.980 302.000 C 242.159 303.007,242.322 293.176,242.350 279.700 C 242.377 266.445,242.335 255.600,242.256 255.600 C 242.176 255.600,241.998 256.545,241.859 257.700 M340.845 256.000 C 340.847 257.090,342.354 262.221,342.371 261.200 C 342.380 260.650,342.041 259.120,341.616 257.800 C 341.191 256.480,340.844 255.670,340.845 256.000 M55.268 260.115 C 54.995 260.822,54.700 262.570,54.612 264.000 C 54.525 265.430,54.533 266.060,54.630 265.400 C 54.727 264.740,55.097 263.067,55.452 261.682 C 56.157 258.935,56.056 258.074,55.268 260.115 M342.440 263.200 C 342.434 263.750,342.685 265.370,343.000 266.800 C 343.368 268.472,343.572 271.756,343.572 276.000 C 343.572 280.244,343.368 283.528,343.000 285.200 C 342.210 288.794,342.286 290.351,343.118 287.600 C 343.656 285.818,343.783 283.615,343.783 276.000 C 343.783 268.385,343.656 266.182,343.118 264.400 C 342.712 263.058,342.448 262.590,342.440 263.200 M53.859 269.860 C 53.545 273.576,53.585 280.203,53.940 283.200 C 54.083 284.410,54.200 281.215,54.200 276.100 C 54.200 270.985,54.182 266.800,54.159 266.800 C 54.136 266.800,54.001 268.177,53.859 269.860 M54.574 287.800 C 54.650 289.120,55.006 291.190,55.366 292.400 C 57.339 299.040,59.060 303.815,59.834 304.800 C 60.093 305.130,60.441 305.850,60.608 306.400 C 60.891 307.336,62.400 309.587,62.400 309.073 C 62.400 308.944,61.677 307.466,60.794 305.788 C 59.027 302.433,57.011 297.035,56.229 293.563 C 55.952 292.333,55.596 291.118,55.438 290.862 C 55.280 290.607,54.991 289.273,54.794 287.899 L 54.437 285.400 54.574 287.800 M342.060 290.765 C 341.986 291.954,340.979 295.525,339.962 298.208 C 339.543 299.312,339.200 300.389,339.200 300.602 C 339.200 301.374,340.701 298.163,340.977 296.800 C 341.133 296.030,341.532 294.661,341.863 293.758 C 342.194 292.855,342.387 291.595,342.292 290.958 C 342.145 289.972,342.111 289.943,342.060 290.765 M337.274 304.713 C 336.348 306.631,335.147 308.920,334.605 309.800 C 334.064 310.680,333.322 311.940,332.956 312.600 C 330.378 317.252,322.257 325.794,316.323 330.095 C 314.167 331.658,312.493 333.026,312.603 333.136 C 312.713 333.246,313.219 332.946,313.727 332.468 C 314.236 331.991,314.785 331.600,314.947 331.600 C 316.646 331.600,328.441 320.021,331.814 315.040 C 333.457 312.616,333.837 312.005,335.114 309.735 C 335.837 308.451,336.602 307.130,336.815 306.800 C 337.028 306.470,337.386 305.750,337.612 305.200 C 337.837 304.650,338.324 303.622,338.693 302.916 C 339.063 302.209,339.273 301.540,339.162 301.428 C 339.050 301.317,338.201 302.795,337.274 304.713 M62.400 309.731 C 62.400 310.966,70.338 321.080,74.253 324.833 C 76.730 327.207,83.691 332.623,85.200 333.349 C 85.530 333.508,86.520 334.065,87.400 334.586 C 89.960 336.103,93.902 338.000,94.495 338.000 C 94.795 338.000,95.216 338.176,95.431 338.391 C 95.949 338.909,100.001 340.312,103.000 341.012 C 104.320 341.320,106.029 341.758,106.797 341.986 C 107.566 342.214,108.916 342.373,109.797 342.340 C 111.095 342.292,111.171 342.252,110.200 342.131 C 106.530 341.673,97.216 339.087,95.811 338.135 C 95.377 337.841,94.743 337.600,94.402 337.600 C 92.683 337.600,81.262 330.547,77.600 327.224 C 76.390 326.126,75.271 325.221,75.113 325.214 C 74.561 325.187,67.573 317.019,65.712 314.223 C 63.470 310.858,62.400 309.406,62.400 309.731 M311.027 333.556 C 310.907 333.751,309.276 334.681,307.403 335.622 C 305.531 336.562,304.077 337.411,304.174 337.507 C 304.330 337.664,306.285 336.759,310.217 334.711 C 311.589 333.996,312.343 333.200,311.647 333.200 C 311.427 333.200,311.148 333.360,311.027 333.556 M301.789 338.135 C 300.384 339.087,291.070 341.673,287.400 342.131 C 286.429 342.252,286.505 342.292,287.803 342.340 C 288.684 342.373,290.034 342.214,290.803 341.986 C 291.571 341.758,293.280 341.320,294.600 341.012 C 298.640 340.069,304.838 337.609,303.189 337.602 C 302.853 337.601,302.223 337.841,301.789 338.135 M114.000 342.853 C 117.396 343.184,280.204 343.184,283.600 342.853 C 285.030 342.714,246.870 342.600,198.800 342.600 C 150.730 342.600,112.570 342.714,114.000 342.853 " stroke="none" fill="#fca0a6" fill-rule="evenodd"></path><path id="path3" d="M193.600 57.618 L 109.000 57.835 105.400 58.737 C 100.798 59.889,95.657 61.585,95.373 62.044 C 95.252 62.240,94.847 62.400,94.473 62.400 C 93.112 62.400,84.560 67.133,81.139 69.779 C 80.556 70.231,79.478 71.050,78.743 71.600 C 68.880 78.987,58.912 94.118,56.346 105.600 C 56.125 106.590,55.697 108.210,55.396 109.200 C 52.857 117.536,53.902 136.371,57.458 146.400 C 58.628 149.698,59.761 152.595,60.038 153.000 C 60.189 153.220,60.969 154.660,61.771 156.200 C 70.726 173.400,85.732 184.517,107.200 189.854 C 110.777 190.744,281.524 191.259,286.800 190.396 C 291.196 189.678,299.285 187.645,301.000 186.828 C 301.440 186.618,303.060 185.905,304.600 185.242 C 314.735 180.882,323.384 173.925,330.896 164.092 C 332.919 161.443,337.600 153.461,337.600 152.659 C 337.600 152.394,337.843 151.823,338.141 151.389 C 339.532 149.358,341.681 141.694,343.017 134.000 C 344.637 124.671,342.895 108.058,339.431 99.800 C 336.046 91.732,333.307 87.012,328.705 81.317 C 326.406 78.470,319.502 71.787,317.507 70.475 C 316.943 70.104,315.517 69.142,314.340 68.338 C 305.651 62.404,294.402 58.392,284.800 57.803 C 282.710 57.674,280.370 57.531,279.600 57.485 C 278.830 57.438,240.130 57.498,193.600 57.618 M288.653 58.689 C 289.123 58.958,290.833 59.382,292.453 59.631 C 294.074 59.880,295.582 60.231,295.805 60.412 C 296.028 60.593,297.108 60.960,298.205 61.228 C 299.302 61.496,300.380 61.846,300.600 62.006 C 300.820 62.165,301.684 62.516,302.519 62.785 C 304.348 63.374,309.376 65.976,312.297 67.845 C 313.462 68.590,314.502 69.200,314.608 69.200 C 314.713 69.200,315.115 69.478,315.500 69.817 C 315.885 70.157,317.280 71.274,318.600 72.301 C 321.663 74.683,327.330 80.509,329.400 83.403 C 330.280 84.634,331.286 85.947,331.636 86.321 C 331.986 86.694,332.387 87.270,332.527 87.600 C 332.668 87.930,333.231 88.920,333.778 89.800 C 336.156 93.626,339.138 100.426,340.093 104.200 C 340.315 105.080,340.738 106.520,341.032 107.400 C 343.094 113.575,343.048 136.037,340.963 141.026 C 340.654 141.767,340.394 142.785,340.386 143.287 C 340.379 143.789,340.025 144.920,339.600 145.800 C 339.175 146.680,338.821 147.650,338.814 147.956 C 338.806 148.262,338.453 149.252,338.029 150.156 C 336.398 153.632,335.071 156.261,334.169 157.800 C 333.654 158.680,332.935 159.923,332.573 160.562 C 332.211 161.202,331.757 161.922,331.565 162.162 C 331.372 162.403,330.301 163.770,329.184 165.200 C 325.250 170.237,315.564 179.200,314.054 179.200 C 313.804 179.200,313.270 179.515,312.866 179.900 C 311.734 180.980,307.954 183.013,303.400 184.990 C 302.740 185.277,301.480 185.824,300.600 186.207 C 298.898 186.946,295.876 187.801,292.600 188.469 C 291.500 188.694,289.250 189.175,287.600 189.539 C 282.998 190.553,114.602 190.553,110.000 189.539 C 108.350 189.175,106.100 188.694,105.000 188.469 C 100.594 187.570,94.687 185.647,93.892 184.852 C 93.643 184.603,93.251 184.396,93.020 184.391 C 92.789 184.387,91.430 183.760,90.000 182.998 C 88.570 182.237,86.950 181.385,86.400 181.105 C 85.109 180.449,83.146 179.150,82.471 178.505 C 82.181 178.227,81.802 178.000,81.630 178.000 C 81.458 178.000,80.855 177.595,80.291 177.100 C 79.728 176.605,78.756 175.776,78.133 175.257 C 74.232 172.010,68.820 166.187,66.695 162.949 C 65.991 161.877,65.266 160.820,65.084 160.600 C 63.995 159.285,61.234 154.113,61.213 153.349 C 61.206 153.101,60.948 152.689,60.639 152.433 C 60.331 152.177,59.957 151.480,59.808 150.884 C 59.660 150.288,59.302 149.260,59.012 148.600 C 58.147 146.625,57.171 143.528,56.746 141.400 C 56.525 140.300,56.047 138.410,55.682 137.200 C 54.703 133.952,54.696 114.418,55.674 111.200 C 56.041 109.990,56.471 108.100,56.630 107.000 C 56.788 105.900,57.148 104.640,57.429 104.200 C 57.711 103.760,58.065 102.723,58.216 101.896 C 58.367 101.068,58.830 99.725,59.245 98.911 C 59.660 98.097,60.000 97.109,60.000 96.715 C 60.000 96.322,60.166 96.000,60.369 96.000 C 60.572 96.000,60.958 95.325,61.227 94.500 C 61.496 93.675,61.850 92.910,62.013 92.800 C 62.176 92.690,62.600 91.970,62.954 91.200 C 63.308 90.430,63.914 89.332,64.299 88.760 C 64.685 88.187,65.349 87.197,65.776 86.560 C 68.946 81.826,76.509 73.793,80.083 71.366 C 81.027 70.725,82.026 69.987,82.302 69.726 C 82.579 69.466,83.164 69.138,83.602 68.999 C 84.041 68.860,84.400 68.597,84.400 68.415 C 84.400 68.233,85.075 67.735,85.900 67.310 C 86.725 66.884,89.018 65.695,90.996 64.668 C 92.975 63.640,94.869 62.800,95.207 62.800 C 95.545 62.800,96.177 62.558,96.611 62.262 C 97.045 61.966,98.298 61.503,99.395 61.233 C 100.492 60.962,101.572 60.593,101.795 60.412 C 102.018 60.231,103.531 59.879,105.159 59.629 C 106.786 59.379,108.316 59.045,108.559 58.887 C 110.008 57.944,287.013 57.749,288.653 58.689 M269.705 90.373 C 268.993 90.551,267.823 91.147,267.105 91.698 C 264.769 93.489,222.235 136.194,221.000 137.989 C 219.395 140.320,219.236 145.970,220.718 147.975 C 221.203 148.631,221.600 149.281,221.600 149.420 C 221.600 150.713,226.951 153.352,229.600 153.367 C 233.863 153.389,233.737 153.496,259.500 127.800 L 283.200 104.160 283.184 101.780 C 283.135 94.545,276.265 88.730,269.705 90.373 M120.486 91.361 C 118.440 92.437,115.647 95.403,115.365 96.800 C 115.254 97.350,114.992 98.451,114.782 99.246 C 114.289 101.114,114.275 142.686,114.767 144.240 C 114.969 144.878,115.234 145.862,115.356 146.426 C 116.106 149.889,122.204 153.661,125.661 152.800 C 128.608 152.066,129.481 151.648,131.095 150.200 C 134.484 147.157,134.583 146.751,134.725 135.300 C 134.794 129.745,134.899 125.200,134.960 125.200 C 135.020 125.200,140.544 130.694,147.235 137.409 C 160.472 150.693,161.860 151.836,165.248 152.234 C 172.261 153.058,176.940 149.023,176.979 142.118 L 177.000 138.435 158.329 119.718 C 148.060 109.423,137.739 99.066,135.393 96.703 C 129.077 90.340,125.124 88.924,120.486 91.361 M162.978 91.330 C 158.058 93.967,156.035 100.437,157.363 109.290 C 157.643 111.161,174.917 129.197,176.112 128.868 C 177.133 128.587,177.209 127.344,177.106 112.600 L 177.000 97.400 176.016 95.800 C 172.974 90.854,167.418 88.950,162.978 91.330 M129.200 92.230 C 130.450 92.868,137.939 100.100,153.700 115.889 L 176.400 138.630 176.400 141.728 C 176.400 148.074,172.982 151.627,166.860 151.647 C 162.600 151.660,161.815 151.058,147.660 136.905 C 137.487 126.734,135.015 124.456,134.560 124.833 C 134.109 125.208,134.000 127.133,134.000 134.749 C 133.999 145.805,133.710 147.131,130.741 149.704 C 126.273 153.575,119.811 152.513,116.600 147.381 L 115.400 145.463 115.400 121.831 L 115.400 98.200 116.333 96.400 C 118.890 91.469,124.281 89.722,129.200 92.230 M171.200 92.038 C 176.270 94.724,176.400 95.247,176.400 112.956 C 176.400 121.204,176.256 128.042,176.079 128.151 C 175.902 128.260,171.762 124.350,166.879 119.461 L 158.000 110.573 158.000 104.180 C 158.000 98.422,158.085 97.630,158.853 96.194 C 161.338 91.547,166.802 89.708,171.200 92.038 M276.377 91.788 C 279.943 93.595,282.400 97.810,282.400 102.121 L 282.400 104.099 258.900 127.562 C 236.828 149.600,235.258 151.080,233.064 151.913 C 225.033 154.963,217.299 146.518,221.234 138.994 C 222.258 137.035,266.401 92.672,268.400 91.592 C 270.487 90.464,273.932 90.549,276.377 91.788 M280.800 114.721 C 280.250 115.094,279.750 115.505,279.689 115.634 C 279.627 115.763,275.812 119.652,271.211 124.276 C 261.789 133.744,262.254 132.923,262.483 139.692 C 262.712 146.445,264.386 150.691,267.354 152.048 C 267.819 152.260,268.650 152.694,269.200 153.011 C 270.761 153.912,275.082 153.773,277.006 152.761 C 278.760 151.837,281.599 149.279,281.602 148.619 C 281.604 148.388,281.919 147.660,282.302 147.000 C 282.925 145.928,283.013 144.214,283.118 130.973 C 283.254 113.847,283.151 113.125,280.800 114.721 M282.400 129.865 C 282.400 145.707,282.233 147.001,279.847 149.667 C 275.859 154.123,270.228 154.179,265.918 149.806 C 263.909 147.768,263.494 145.655,263.664 138.325 L 263.800 132.449 272.193 124.025 C 278.191 118.005,280.846 115.600,281.493 115.600 L 282.400 115.600 282.400 129.865 M112.400 209.615 C 108.706 210.043,99.271 212.281,97.400 213.172 C 96.960 213.382,95.340 214.095,93.800 214.758 C 90.711 216.086,88.817 217.041,87.000 218.186 C 78.565 223.498,76.992 224.823,69.417 233.000 C 63.785 239.081,58.061 250.530,55.636 260.566 C 53.825 268.060,53.613 284.841,55.263 290.096 C 55.488 290.813,55.915 292.390,56.211 293.600 C 58.967 304.870,67.166 318.399,75.523 325.468 C 76.775 326.527,78.250 327.806,78.800 328.310 C 81.331 330.627,93.041 337.600,94.402 337.600 C 94.743 337.600,95.377 337.841,95.811 338.135 C 97.996 339.615,107.406 341.871,113.600 342.400 C 119.848 342.934,277.815 342.930,284.000 342.396 C 290.086 341.871,297.593 340.114,301.800 338.231 C 311.515 333.882,317.873 329.673,323.950 323.566 C 327.331 320.169,331.730 314.812,332.956 312.600 C 333.322 311.940,334.062 310.680,334.602 309.800 C 344.225 294.108,346.432 268.706,339.575 252.557 C 337.523 247.727,335.904 244.361,334.592 242.200 C 334.058 241.320,333.320 240.060,332.951 239.400 C 329.675 233.528,320.535 224.524,312.800 219.550 C 309.748 217.587,302.895 214.021,302.108 213.986 C 301.939 213.979,301.080 213.625,300.200 213.200 C 299.320 212.775,298.183 212.421,297.674 212.414 C 297.164 212.406,296.354 212.189,295.874 211.931 C 294.753 211.330,288.670 210.046,284.800 209.594 C 281.159 209.168,116.077 209.189,112.400 209.615 M286.400 210.551 C 287.390 210.849,289.413 211.221,290.896 211.378 C 292.378 211.535,293.684 211.813,293.798 211.997 C 293.911 212.180,294.768 212.455,295.702 212.608 C 298.385 213.046,304.907 215.821,310.294 218.815 C 312.657 220.128,316.800 222.944,316.800 223.238 C 316.800 223.407,317.203 223.674,317.696 223.830 C 318.605 224.119,329.200 234.587,329.200 235.197 C 329.200 235.379,329.886 236.399,330.725 237.464 C 331.564 238.529,332.779 240.384,333.425 241.586 C 334.071 242.789,334.825 244.016,335.100 244.315 C 335.375 244.613,335.600 245.090,335.600 245.375 C 335.600 245.659,335.960 246.350,336.400 246.909 C 336.840 247.469,337.200 248.141,337.200 248.403 C 337.200 248.665,337.462 249.446,337.782 250.140 C 338.597 251.904,339.597 254.711,340.085 256.600 C 340.312 257.480,340.738 258.920,341.032 259.800 C 343.074 265.916,343.033 288.363,340.973 292.312 C 340.660 292.910,340.400 293.850,340.394 294.400 C 340.387 294.950,340.026 296.185,339.591 297.144 C 339.156 298.103,338.794 299.093,338.786 299.344 C 338.779 299.595,338.425 300.520,338.000 301.400 C 337.575 302.280,337.221 303.242,337.214 303.537 C 337.206 303.832,336.840 304.531,336.400 305.091 C 335.960 305.650,335.600 306.422,335.600 306.805 C 335.600 307.188,335.337 307.720,335.015 307.987 C 334.694 308.254,334.317 308.833,334.177 309.274 C 334.037 309.714,333.355 310.884,332.661 311.873 C 331.968 312.862,331.220 313.976,331.000 314.350 C 330.780 314.724,330.373 315.293,330.095 315.615 C 329.818 315.937,329.040 316.920,328.367 317.800 C 327.216 319.307,322.867 323.883,321.335 325.200 C 316.431 329.416,311.588 332.870,308.782 334.152 C 308.022 334.500,307.130 334.956,306.800 335.167 C 303.063 337.550,293.151 340.616,286.000 341.601 C 282.581 342.072,115.019 342.072,111.600 341.601 C 106.521 340.901,99.326 339.014,96.800 337.718 C 96.250 337.436,95.566 337.204,95.279 337.202 C 94.835 337.200,93.521 336.596,90.800 335.143 C 90.470 334.967,89.300 334.354,88.200 333.780 C 87.100 333.207,85.234 332.077,84.054 331.269 C 82.873 330.461,81.629 329.620,81.289 329.400 C 80.948 329.180,80.362 328.730,79.986 328.400 C 79.610 328.070,78.525 327.170,77.576 326.400 C 76.626 325.630,74.758 323.838,73.424 322.418 C 72.091 320.999,70.595 319.415,70.100 318.900 C 69.605 318.385,69.200 317.798,69.200 317.596 C 69.200 317.394,68.840 317.035,68.400 316.800 C 67.960 316.565,67.600 316.207,67.600 316.006 C 67.600 315.805,67.015 314.802,66.300 313.777 C 64.119 310.652,63.672 309.908,62.167 306.898 C 61.369 305.301,60.569 303.904,60.389 303.793 C 60.209 303.682,59.940 303.008,59.792 302.295 C 59.643 301.583,59.296 300.640,59.021 300.200 C 58.746 299.760,58.390 298.680,58.231 297.800 C 58.071 296.920,57.712 295.840,57.432 295.400 C 57.152 294.960,56.800 293.663,56.650 292.518 C 56.500 291.373,56.080 289.663,55.716 288.718 C 54.752 286.212,54.717 265.727,55.673 263.561 C 56.022 262.770,56.440 261.150,56.601 259.961 C 56.762 258.772,57.121 257.350,57.399 256.800 C 57.676 256.250,58.031 255.170,58.187 254.400 C 58.342 253.630,58.835 252.190,59.281 251.200 C 61.474 246.333,63.488 242.419,64.681 240.704 C 65.406 239.661,66.000 238.702,66.000 238.573 C 66.000 238.342,70.335 232.862,71.574 231.525 C 74.750 228.101,76.554 226.430,79.783 223.924 C 81.112 222.891,82.472 221.811,82.805 221.524 C 83.139 221.236,83.859 220.773,84.405 220.496 C 84.952 220.218,85.940 219.643,86.600 219.216 C 90.122 216.942,96.759 214.009,100.800 212.942 C 102.010 212.622,103.360 212.196,103.800 211.994 C 104.240 211.792,105.962 211.447,107.627 211.228 C 109.291 211.008,111.091 210.653,111.627 210.440 C 113.299 209.771,284.174 209.880,286.400 210.551 M124.000 246.990 C 123.450 247.308,122.730 247.692,122.400 247.842 C 121.019 248.472,119.058 250.742,118.161 252.750 C 117.119 255.082,116.600 285.182,117.592 285.795 C 118.389 286.288,119.999 284.895,128.700 276.187 L 137.600 267.279 137.600 261.089 C 137.600 253.849,136.965 251.727,133.999 249.046 C 131.136 246.460,126.548 245.517,124.000 246.990 M169.130 246.711 C 168.322 246.784,167.445 247.105,167.181 247.422 C 166.918 247.740,166.339 248.000,165.895 248.000 C 165.030 248.000,161.918 251.022,134.919 278.083 C 116.070 296.975,117.200 295.672,117.200 298.513 C 117.200 302.022,120.811 308.400,122.797 308.400 C 123.050 308.400,123.510 308.652,123.818 308.961 C 125.222 310.365,130.837 310.174,132.940 308.651 C 134.666 307.400,178.061 264.005,178.993 262.598 C 183.904 255.180,178.137 245.891,169.130 246.711 M131.904 248.297 C 134.242 249.647,135.780 251.641,136.334 254.041 C 136.948 256.702,136.948 266.176,136.333 267.326 C 135.363 269.143,119.667 284.471,118.924 284.329 C 118.008 284.152,117.579 258.348,118.426 254.400 C 119.740 248.271,126.534 245.195,131.904 248.297 M174.117 248.146 C 179.615 250.578,181.835 257.331,178.648 261.930 C 177.096 264.170,133.413 307.666,131.911 308.467 C 125.893 311.677,118.849 306.681,118.127 298.690 L 117.882 295.980 141.441 272.472 C 168.985 244.987,168.235 245.545,174.117 248.146 M247.000 249.308 C 244.114 250.848,242.185 253.282,241.451 256.309 C 240.393 260.671,240.482 299.469,241.559 303.355 C 242.374 306.295,244.979 309.328,247.157 309.875 C 247.701 310.012,248.609 310.365,249.173 310.659 C 250.574 311.390,251.904 311.316,253.800 310.400 C 254.680 309.975,255.554 309.621,255.742 309.614 C 256.545 309.582,259.347 306.946,259.845 305.753 C 260.144 305.039,260.571 304.342,260.794 304.204 C 261.526 303.751,261.336 255.411,260.600 254.800 C 260.270 254.526,260.000 254.060,260.000 253.765 C 260.000 250.135,251.141 247.097,247.000 249.308 M253.494 249.508 C 256.488 250.354,258.508 252.095,259.856 254.989 L 260.792 257.000 260.796 279.636 L 260.800 302.272 259.558 304.758 C 255.349 313.181,243.413 311.245,241.958 301.904 C 241.228 297.211,241.663 256.501,242.463 254.740 C 243.443 252.582,246.032 250.346,248.476 249.547 C 251.128 248.680,250.581 248.685,253.494 249.508 " stroke="none" fill="#fc707c" fill-rule="evenodd"></path><path id="path4" d="M113.000 56.576 C 112.120 56.871,109.871 57.230,108.003 57.374 C 106.134 57.518,104.207 57.897,103.717 58.217 C 103.228 58.538,102.309 58.800,101.674 58.800 C 100.239 58.800,98.000 59.555,98.000 60.039 C 98.000 60.238,97.558 60.400,97.019 60.400 C 95.924 60.400,94.000 61.173,94.000 61.613 C 94.000 61.770,93.303 62.009,92.452 62.145 C 91.601 62.281,90.678 62.664,90.403 62.996 C 90.127 63.328,89.562 63.600,89.147 63.600 C 88.732 63.600,88.084 63.960,87.707 64.400 C 87.330 64.840,86.730 65.200,86.373 65.200 C 86.016 65.200,85.398 65.560,85.000 66.000 C 84.602 66.440,84.062 66.800,83.800 66.800 C 83.538 66.800,82.998 67.160,82.600 67.600 C 82.202 68.040,81.695 68.400,81.473 68.400 C 80.484 68.400,70.000 77.855,70.000 78.747 C 70.000 78.966,69.640 79.260,69.200 79.400 C 68.760 79.540,68.400 79.852,68.400 80.093 C 68.400 80.335,68.131 80.818,67.802 81.166 C 66.517 82.528,65.200 84.336,65.200 84.738 C 65.200 84.970,64.974 85.304,64.699 85.480 C 64.012 85.918,62.000 88.932,62.000 89.522 C 62.000 89.785,61.640 90.360,61.200 90.800 C 60.760 91.240,60.400 91.887,60.400 92.237 C 60.400 92.587,60.040 93.331,59.600 93.891 C 59.160 94.450,58.800 95.256,58.800 95.683 C 58.800 96.109,58.537 96.720,58.216 97.041 C 57.894 97.363,57.512 98.295,57.365 99.113 C 57.219 99.931,56.852 100.883,56.551 101.229 C 56.250 101.575,55.885 102.745,55.739 103.829 C 55.593 104.913,55.239 106.162,54.953 106.605 C 54.667 107.048,54.258 108.938,54.044 110.805 C 53.831 112.672,53.471 115.010,53.246 116.000 C 52.623 118.727,52.695 130.215,53.351 132.816 C 53.653 134.017,54.018 136.344,54.161 137.987 C 54.305 139.630,54.660 141.340,54.952 141.787 C 55.244 142.234,55.610 143.453,55.765 144.495 C 55.920 145.538,56.285 146.628,56.576 146.919 C 56.866 147.209,57.229 148.191,57.383 149.100 C 57.537 150.010,57.918 150.966,58.231 151.226 C 58.544 151.486,58.800 152.126,58.800 152.649 C 58.800 153.172,59.160 153.960,59.600 154.400 C 60.040 154.840,60.400 155.446,60.400 155.746 C 60.400 156.046,60.760 156.750,61.200 157.309 C 61.640 157.869,62.000 158.495,62.000 158.702 C 62.000 158.909,62.360 159.493,62.800 160.000 C 63.240 160.507,63.600 161.137,63.600 161.399 C 63.600 161.661,63.960 162.202,64.400 162.600 C 64.840 162.998,65.200 163.560,65.200 163.848 C 65.200 164.136,65.560 164.565,66.000 164.800 C 66.440 165.035,66.801 165.447,66.802 165.714 C 66.804 166.487,72.460 172.584,75.785 175.400 C 76.824 176.280,78.116 177.405,78.655 177.900 C 79.195 178.395,79.808 178.800,80.018 178.800 C 80.228 178.800,80.747 179.115,81.171 179.500 C 83.263 181.398,84.104 181.946,87.051 183.331 C 87.739 183.654,88.416 184.103,88.556 184.328 C 88.695 184.554,89.335 184.854,89.977 184.995 C 90.619 185.136,91.359 185.510,91.621 185.826 C 91.883 186.142,92.394 186.400,92.755 186.400 C 93.116 186.400,94.084 186.760,94.904 187.200 C 95.725 187.640,96.803 188.001,97.299 188.003 C 97.794 188.004,98.740 188.363,99.400 188.800 C 100.135 189.287,101.219 189.580,102.200 189.557 L 103.800 189.520 102.231 189.152 C 101.369 188.949,100.469 188.628,100.231 188.438 C 99.994 188.248,99.170 187.970,98.400 187.821 C 96.759 187.502,95.993 187.177,90.400 184.428 C 86.413 182.469,85.715 182.073,82.960 180.220 C 77.574 176.596,69.317 168.830,66.992 165.200 C 66.499 164.430,65.570 163.145,64.927 162.345 C 64.285 161.545,63.318 160.015,62.779 158.945 C 62.241 157.875,61.697 156.910,61.571 156.800 C 61.359 156.615,59.809 153.409,58.254 149.940 C 57.894 149.136,57.594 148.236,57.586 147.940 C 57.579 147.643,57.225 146.680,56.800 145.800 C 56.375 144.920,56.021 143.818,56.014 143.350 C 56.006 142.883,55.717 141.713,55.372 140.750 C 54.528 138.397,53.615 129.662,53.621 124.000 C 53.629 115.687,54.563 109.245,56.637 103.200 C 56.976 102.210,57.397 100.841,57.572 100.157 C 58.393 96.949,65.251 84.488,66.428 84.067 C 66.632 83.993,66.800 83.743,66.800 83.510 C 66.800 81.333,82.752 66.800,85.141 66.800 C 85.394 66.800,85.600 66.657,85.600 66.483 C 85.600 66.308,87.355 65.296,89.500 64.234 C 91.645 63.171,94.066 61.964,94.879 61.551 C 95.693 61.138,96.683 60.794,97.079 60.786 C 97.476 60.779,98.520 60.425,99.400 60.000 C 100.280 59.575,101.376 59.221,101.836 59.214 C 102.296 59.206,103.556 58.928,104.636 58.596 C 110.246 56.872,113.938 56.802,198.755 56.801 C 280.140 56.800,285.087 56.878,291.332 58.263 C 292.835 58.596,294.156 58.778,294.267 58.667 C 294.749 58.184,292.653 57.608,289.552 57.370 C 287.708 57.229,285.429 56.863,284.486 56.557 C 281.976 55.741,115.429 55.760,113.000 56.576 M296.193 59.221 C 297.069 59.444,297.960 59.800,298.173 60.013 C 298.386 60.226,298.833 60.400,299.166 60.400 C 300.721 60.400,298.347 59.101,296.541 58.964 L 294.600 58.817 296.193 59.221 M300.400 60.642 C 301.310 61.020,303.964 62.193,306.200 63.206 C 314.213 66.835,322.934 73.639,328.708 80.765 C 329.703 81.994,330.630 83.090,330.766 83.200 C 330.902 83.310,331.824 84.660,332.815 86.200 C 335.382 90.191,335.549 90.466,336.214 91.800 C 336.543 92.460,336.965 93.270,337.152 93.600 C 338.049 95.185,339.601 98.742,339.613 99.240 C 339.620 99.548,339.890 100.149,340.213 100.576 C 340.536 101.004,340.800 101.672,340.800 102.062 C 340.800 102.453,341.103 103.633,341.472 104.686 C 341.842 105.739,342.282 107.410,342.450 108.400 C 342.712 109.943,342.737 109.819,342.627 107.538 C 342.548 105.915,342.245 104.513,341.849 103.949 C 341.492 103.439,341.199 102.477,341.197 101.811 C 341.196 101.145,340.837 100.060,340.400 99.400 C 339.963 98.740,339.604 97.868,339.603 97.463 C 339.601 97.058,339.240 96.269,338.800 95.709 C 338.360 95.150,338.000 94.381,338.000 94.000 C 338.000 93.619,337.640 92.850,337.200 92.291 C 336.760 91.731,336.400 91.091,336.400 90.868 C 336.400 90.645,335.586 89.234,334.592 87.731 C 333.597 86.229,332.562 84.662,332.292 84.249 C 331.574 83.153,330.303 81.615,329.500 80.871 C 329.115 80.514,328.800 80.104,328.800 79.959 C 328.800 79.491,320.351 71.200,319.874 71.200 C 319.746 71.200,319.137 70.733,318.521 70.161 C 317.201 68.938,314.098 66.800,313.642 66.800 C 313.467 66.800,312.998 66.440,312.600 66.000 C 312.202 65.560,311.572 65.200,311.200 65.200 C 310.828 65.200,310.198 64.840,309.800 64.400 C 309.402 63.960,308.757 63.600,308.367 63.600 C 307.976 63.600,307.385 63.328,307.052 62.995 C 306.719 62.662,305.851 62.271,305.123 62.127 C 304.395 61.983,303.619 61.621,303.399 61.323 C 303.178 61.026,302.278 60.694,301.399 60.587 C 300.519 60.480,300.070 60.505,300.400 60.642 M122.099 91.985 C 120.019 92.733,117.665 94.286,117.622 94.937 C 117.610 95.122,117.240 95.731,116.800 96.291 C 116.020 97.282,116.000 97.914,116.000 121.483 L 116.000 145.658 116.994 147.354 C 119.296 151.282,125.892 152.977,129.178 150.485 C 133.238 147.406,133.320 147.113,133.582 134.605 C 133.787 124.816,133.844 124.201,134.557 124.065 C 135.108 123.959,138.816 127.404,148.157 136.703 C 161.204 149.690,162.996 151.225,165.047 151.168 C 165.681 151.151,165.930 151.045,165.600 150.933 C 165.270 150.820,164.433 150.474,163.740 150.164 C 163.046 149.854,162.326 149.596,162.140 149.591 C 161.953 149.586,155.881 143.646,148.646 136.391 C 131.703 119.400,132.933 119.492,132.737 135.200 L 132.600 146.200 131.239 147.892 C 130.491 148.823,129.501 149.702,129.039 149.846 C 128.578 149.990,128.079 150.296,127.932 150.526 C 127.548 151.124,123.188 151.352,122.000 150.836 C 120.067 149.997,117.600 148.016,117.600 147.303 C 117.600 147.080,117.330 146.674,117.000 146.400 C 116.264 145.789,116.074 97.849,116.806 97.396 C 117.029 97.258,117.470 96.528,117.786 95.773 C 118.101 95.018,118.514 94.400,118.704 94.400 C 118.894 94.400,119.484 93.995,120.015 93.500 C 121.313 92.291,128.261 92.140,129.472 93.295 C 129.872 93.677,132.810 96.620,136.000 99.835 C 142.046 105.928,144.038 107.900,144.892 108.640 C 145.171 108.882,145.873 109.602,146.452 110.240 C 147.031 110.878,150.856 114.708,154.952 118.752 C 159.048 122.795,162.400 126.245,162.400 126.418 C 162.400 126.592,162.582 126.794,162.803 126.868 C 163.410 127.070,174.704 138.372,174.956 139.030 C 175.197 139.657,176.148 139.836,175.933 139.213 C 175.860 139.000,165.479 128.482,152.865 115.838 C 130.365 93.286,129.883 92.834,127.487 92.025 C 124.563 91.037,124.728 91.039,122.099 91.985 M164.499 91.985 C 161.254 93.153,158.400 96.257,158.400 98.619 C 158.400 99.695,159.156 98.841,159.643 97.215 C 159.906 96.335,160.808 94.999,161.724 94.131 L 163.340 92.600 167.188 92.600 L 171.035 92.600 172.918 94.537 C 174.047 95.699,174.800 96.839,174.800 97.388 C 174.800 97.891,175.070 98.526,175.400 98.800 C 176.297 99.545,176.165 98.698,175.040 96.487 C 172.872 92.228,168.733 90.461,164.499 91.985 M268.460 92.071 C 266.515 93.316,223.021 136.866,221.816 138.775 C 221.257 139.660,220.806 140.613,220.813 140.892 C 220.831 141.567,222.400 139.667,222.400 138.971 C 222.400 138.087,267.652 93.092,269.338 92.300 C 271.163 91.442,272.656 91.413,274.538 92.200 C 276.654 93.084,277.624 92.930,275.800 92.000 C 273.633 90.895,270.246 90.928,268.460 92.071 M277.600 93.404 C 277.600 93.773,277.960 94.169,278.400 94.284 C 278.840 94.399,279.200 94.669,279.200 94.884 C 279.200 95.098,279.560 95.731,280.000 96.291 C 280.660 97.129,280.800 97.914,280.800 100.759 L 280.800 104.211 257.896 127.005 C 230.482 154.289,234.135 151.386,227.400 151.244 L 225.800 151.210 227.694 151.861 C 229.839 152.599,233.038 151.923,235.309 150.252 C 236.851 149.118,280.752 105.237,281.220 104.363 C 281.731 103.408,281.701 99.956,281.163 97.820 C 280.699 95.975,277.600 92.135,277.600 93.404 M158.400 110.004 C 158.400 110.222,159.840 111.840,161.600 113.600 C 163.456 115.456,164.800 116.532,164.800 116.163 C 164.800 115.812,164.440 115.431,164.000 115.316 C 163.560 115.201,163.200 114.934,163.200 114.723 C 163.200 114.198,160.965 112.000,160.431 112.000 C 160.194 112.000,160.000 111.770,160.000 111.489 C 160.000 111.208,159.640 110.670,159.200 110.293 C 158.760 109.916,158.400 109.786,158.400 110.004 M342.991 111.700 C 343.151 112.415,343.436 113.720,343.624 114.600 C 344.235 117.463,344.072 131.955,343.400 134.535 C 342.564 137.747,342.585 138.386,343.500 137.472 C 344.254 136.718,344.597 114.018,343.892 111.500 C 343.444 109.896,342.628 110.077,342.991 111.700 M272.400 124.380 L 264.200 132.600 264.066 137.799 C 263.828 147.070,264.664 149.334,269.192 151.669 C 272.699 153.478,276.026 152.823,279.300 149.678 C 280.936 148.107,281.263 147.324,280.000 148.000 C 279.560 148.235,279.200 148.610,279.200 148.833 C 279.200 149.412,277.113 151.171,276.400 151.193 C 276.070 151.204,275.103 151.455,274.250 151.751 C 271.601 152.674,267.781 151.038,265.685 148.082 C 264.820 146.863,264.769 146.415,264.741 139.850 L 264.711 132.907 272.756 124.845 L 280.800 116.783 280.847 132.091 C 280.873 140.511,281.032 146.860,281.200 146.200 C 281.759 144.004,281.667 116.507,281.100 116.323 C 280.825 116.233,276.910 119.859,272.400 124.380 M165.651 117.500 C 166.653 118.777,170.518 122.416,170.690 122.243 C 170.880 122.053,165.721 116.800,165.344 116.800 C 165.211 116.800,165.349 117.115,165.651 117.500 M173.237 125.204 C 175.640 127.526,176.360 127.914,175.862 126.617 C 175.732 126.278,175.259 126.000,174.813 126.000 C 174.336 126.000,174.000 125.737,174.000 125.363 C 174.000 125.012,173.657 124.635,173.237 124.526 C 172.817 124.416,172.384 123.983,172.274 123.563 C 172.165 123.143,171.777 122.800,171.412 122.800 C 170.997 122.800,171.680 123.700,173.237 125.204 M342.470 139.338 C 342.348 141.331,339.650 149.645,338.372 151.972 C 338.182 152.317,337.474 153.770,336.798 155.200 C 335.479 157.994,333.350 161.529,332.268 162.725 C 331.901 163.131,331.600 163.604,331.600 163.776 C 331.600 165.731,320.385 176.386,313.611 180.867 C 311.839 182.038,310.571 183.057,310.791 183.130 C 311.012 183.204,311.668 182.890,312.250 182.432 C 312.832 181.974,313.554 181.600,313.854 181.600 C 314.154 181.600,314.400 181.444,314.400 181.252 C 314.400 181.061,315.480 180.228,316.800 179.400 C 318.120 178.572,319.200 177.751,319.200 177.575 C 319.200 177.398,319.560 177.140,320.000 177.000 C 320.440 176.860,320.800 176.488,320.800 176.173 C 320.800 175.858,321.064 175.600,321.386 175.600 C 321.708 175.600,322.165 175.240,322.400 174.800 C 322.635 174.360,323.092 174.000,323.414 174.000 C 323.736 174.000,324.000 173.843,324.000 173.652 C 324.000 173.460,325.080 172.220,326.400 170.896 C 327.720 169.572,328.800 168.379,328.800 168.244 C 328.800 168.110,329.520 167.280,330.400 166.400 C 331.280 165.520,332.000 164.524,332.000 164.187 C 332.000 163.851,332.270 163.471,332.600 163.345 C 332.930 163.218,333.200 162.892,333.200 162.619 C 333.200 162.347,333.550 161.807,333.977 161.421 C 334.405 161.034,334.869 160.196,335.009 159.559 C 335.149 158.921,335.404 158.400,335.575 158.400 C 335.919 158.400,338.000 154.562,338.000 153.926 C 338.000 153.706,338.360 153.069,338.800 152.509 C 339.240 151.950,339.600 151.079,339.600 150.575 C 339.600 150.070,339.874 149.383,340.208 149.049 C 340.543 148.714,340.979 147.666,341.178 146.720 C 341.376 145.774,341.832 144.206,342.189 143.237 C 342.548 142.265,342.772 140.738,342.690 139.837 C 342.591 138.754,342.516 138.586,342.470 139.338 M175.327 144.200 C 175.067 144.860,174.727 145.843,174.573 146.385 C 174.241 147.548,172.293 149.600,171.520 149.600 C 171.222 149.600,170.623 149.848,170.189 150.152 C 169.755 150.455,169.040 150.795,168.600 150.906 C 167.865 151.091,167.872 151.111,168.688 151.154 C 170.447 151.246,174.800 148.389,174.800 147.143 C 174.800 146.832,175.082 146.175,175.427 145.683 C 175.772 145.190,175.997 144.385,175.927 143.894 C 175.811 143.078,175.759 143.104,175.327 144.200 M220.806 145.259 C 220.796 146.311,222.484 148.987,223.917 150.192 C 225.754 151.737,225.987 151.170,224.185 149.537 C 223.374 148.802,222.543 147.840,222.338 147.400 C 221.456 145.504,220.812 144.604,220.806 145.259 M306.800 184.595 C 302.870 186.602,300.746 187.501,299.200 187.811 C 298.430 187.966,297.606 188.248,297.369 188.438 C 297.131 188.628,296.231 188.949,295.369 189.152 L 293.800 189.520 295.400 189.557 C 296.381 189.580,297.465 189.287,298.200 188.800 C 298.860 188.363,299.806 188.004,300.301 188.003 C 300.797 188.001,301.875 187.640,302.696 187.200 C 303.516 186.760,304.478 186.400,304.833 186.400 C 305.187 186.400,305.893 186.040,306.400 185.600 C 306.907 185.160,307.627 184.800,307.999 184.800 C 308.371 184.800,309.002 184.440,309.400 184.000 C 310.383 182.914,309.858 183.034,306.800 184.595 M104.766 190.261 C 105.351 190.671,107.175 191.070,109.555 191.308 C 114.333 191.787,276.813 192.179,281.600 191.724 C 283.486 191.544,245.825 191.311,197.000 191.200 C 114.397 191.012,108.893 190.957,107.250 190.300 C 104.847 189.339,103.418 189.317,104.766 190.261 M291.072 190.048 C 290.671 190.281,289.141 190.612,287.672 190.783 L 285.000 191.095 287.800 191.137 C 289.787 191.167,291.064 190.959,292.200 190.422 C 293.589 189.765,293.668 189.662,292.800 189.645 C 292.250 189.633,291.472 189.815,291.072 190.048 M117.800 208.400 C 116.700 208.551,153.150 208.682,198.800 208.691 C 244.450 208.700,281.080 208.559,280.200 208.377 C 278.290 207.982,120.686 208.004,117.800 208.400 M107.302 209.190 C 106.589 209.359,105.779 209.678,105.502 209.898 C 105.226 210.119,104.053 210.385,102.896 210.491 C 101.739 210.597,100.479 210.956,100.096 211.289 C 99.713 211.622,98.640 211.991,97.711 212.108 C 96.782 212.225,95.734 212.609,95.382 212.960 C 95.031 213.312,94.306 213.600,93.771 213.600 C 93.237 213.600,92.440 213.960,92.000 214.400 C 91.560 214.840,90.853 215.200,90.429 215.200 C 89.693 215.200,88.196 216.330,88.513 216.646 C 88.596 216.729,89.909 216.182,91.432 215.430 C 95.968 213.191,97.815 212.400,98.511 212.400 C 98.874 212.400,100.032 212.064,101.085 211.653 C 102.138 211.243,103.900 210.775,105.000 210.614 C 106.100 210.453,107.334 210.142,107.742 209.924 C 108.149 209.706,110.039 209.389,111.942 209.219 L 115.400 208.912 112.000 208.897 C 110.130 208.889,108.016 209.021,107.302 209.190 M285.658 209.191 C 287.561 209.376,289.451 209.703,289.858 209.917 C 290.266 210.132,291.410 210.430,292.400 210.581 C 296.976 211.276,307.042 215.320,311.653 218.316 C 312.232 218.692,313.807 219.701,315.153 220.557 C 316.499 221.413,317.600 222.256,317.600 222.430 C 317.600 222.604,317.970 222.863,318.421 223.007 C 320.391 223.632,333.200 237.646,333.200 239.176 C 333.200 239.355,333.426 239.689,333.701 239.918 C 334.122 240.267,334.973 241.762,337.164 246.000 C 338.014 247.644,339.170 250.310,339.419 251.200 C 339.572 251.750,339.857 252.399,340.051 252.643 C 340.472 253.172,341.853 258.292,342.629 262.200 C 342.935 263.740,343.360 265.810,343.575 266.800 C 344.082 269.138,344.081 282.868,343.574 285.200 C 343.358 286.190,342.986 288.170,342.747 289.600 C 342.508 291.030,342.062 292.926,341.756 293.813 C 341.002 296.002,341.039 296.809,341.840 295.664 C 342.192 295.161,342.580 293.636,342.701 292.275 C 342.823 290.914,343.210 289.358,343.561 288.818 C 344.538 287.316,344.511 265.711,343.529 263.388 C 343.160 262.515,342.768 260.770,342.659 259.510 C 342.549 258.251,342.176 256.816,341.830 256.321 C 341.483 255.827,341.200 254.856,341.200 254.165 C 341.200 253.474,340.840 252.450,340.400 251.891 C 339.960 251.331,339.600 250.435,339.600 249.899 C 339.600 249.363,339.240 248.598,338.800 248.200 C 338.360 247.802,338.000 247.067,338.000 246.567 C 338.000 246.066,337.739 245.396,337.420 245.077 C 337.101 244.758,336.724 244.038,336.584 243.478 C 336.443 242.917,335.984 242.148,335.564 241.767 C 335.144 241.387,334.800 240.871,334.800 240.619 C 334.800 240.148,333.923 238.867,332.700 237.553 C 332.315 237.139,332.000 236.643,332.000 236.451 C 332.000 234.865,318.435 221.200,316.860 221.200 C 316.654 221.200,316.382 220.930,316.255 220.600 C 316.129 220.270,315.777 220.000,315.475 220.000 C 315.172 220.000,314.598 219.640,314.200 219.200 C 313.802 218.760,313.232 218.400,312.934 218.400 C 312.636 218.400,312.084 218.040,311.707 217.600 C 311.330 217.160,310.726 216.800,310.365 216.800 C 310.004 216.800,309.250 216.440,308.691 216.000 C 308.131 215.560,307.411 215.200,307.091 215.200 C 306.770 215.200,306.050 214.840,305.491 214.400 C 304.931 213.960,304.187 213.600,303.835 213.600 C 303.484 213.600,302.525 213.240,301.704 212.800 C 300.884 212.360,299.773 212.000,299.237 212.000 C 298.701 212.000,297.936 211.704,297.536 211.342 C 297.135 210.980,295.861 210.593,294.704 210.483 C 293.547 210.373,292.181 210.009,291.668 209.674 C 291.014 209.247,289.464 209.034,286.468 208.960 L 282.200 208.855 285.658 209.191 M85.800 217.600 C 85.402 218.040,84.874 218.400,84.627 218.400 C 84.380 218.400,83.870 218.760,83.493 219.200 C 83.116 219.640,82.581 220.001,82.304 220.002 C 82.027 220.003,81.115 220.633,80.278 221.402 C 79.440 222.171,78.649 222.800,78.520 222.800 C 77.843 222.800,66.800 233.896,66.800 234.576 C 66.800 234.712,66.080 235.734,65.200 236.848 C 64.320 237.961,63.600 239.086,63.600 239.347 C 63.600 239.608,63.240 240.130,62.800 240.507 C 62.360 240.884,62.000 241.514,62.000 241.907 C 62.000 242.300,61.640 242.930,61.200 243.307 C 60.760 243.684,60.400 244.281,60.400 244.633 C 60.400 244.985,60.040 245.731,59.600 246.291 C 59.160 246.850,58.800 247.712,58.800 248.205 C 58.800 248.698,58.535 249.322,58.211 249.591 C 57.886 249.860,57.504 250.737,57.360 251.540 C 57.216 252.343,56.867 253.270,56.585 253.600 C 56.302 253.930,55.939 255.100,55.777 256.200 C 55.615 257.300,55.246 258.562,54.957 259.005 C 54.669 259.448,54.258 261.338,54.044 263.205 C 53.831 265.072,53.471 267.410,53.246 268.400 C 52.617 271.153,52.694 281.881,53.359 284.227 C 53.666 285.312,54.017 287.523,54.139 289.140 C 54.261 290.757,54.611 292.467,54.917 292.940 C 55.223 293.413,55.593 294.687,55.739 295.771 C 55.885 296.855,56.250 298.025,56.551 298.371 C 56.852 298.717,57.216 299.657,57.360 300.460 C 57.504 301.263,57.920 302.163,58.285 302.460 C 58.873 302.938,58.912 302.908,58.622 302.200 C 58.160 301.069,56.150 295.009,55.390 292.449 C 53.755 286.950,53.227 275.841,54.177 266.940 C 54.696 262.079,55.029 260.558,56.661 255.600 C 56.987 254.610,57.397 253.241,57.572 252.557 C 58.560 248.697,65.201 237.156,68.800 233.046 C 71.214 230.289,76.646 224.800,76.961 224.800 C 77.126 224.800,77.819 224.243,78.500 223.562 C 79.181 222.881,81.630 221.081,83.942 219.562 C 86.468 217.903,87.823 216.800,87.335 216.800 C 86.889 216.800,86.198 217.160,85.800 217.600 M124.189 248.144 C 122.016 249.156,119.558 251.476,119.140 252.909 C 118.720 254.347,118.753 283.524,119.175 283.785 C 119.569 284.028,124.130 279.597,123.813 279.279 C 123.712 279.179,122.820 279.930,121.830 280.948 C 120.840 281.967,119.837 282.800,119.601 282.800 C 118.764 282.800,119.256 252.824,120.100 252.352 C 120.485 252.136,120.800 251.765,120.800 251.526 C 120.800 250.964,122.697 249.204,123.321 249.186 C 123.584 249.179,124.520 248.825,125.400 248.400 C 127.324 247.471,127.515 247.456,128.827 248.141 C 129.391 248.435,130.329 248.796,130.910 248.942 C 131.971 249.208,134.000 250.823,134.000 251.402 C 134.000 251.572,134.315 251.942,134.700 252.224 C 135.323 252.679,135.400 253.546,135.400 260.068 L 135.400 267.400 132.257 270.524 C 130.528 272.242,129.194 273.727,129.291 273.824 C 129.389 273.922,130.893 272.606,132.634 270.901 L 135.800 267.800 135.930 261.600 C 136.100 253.499,135.936 252.524,134.087 250.613 C 130.993 247.417,127.579 246.566,124.189 248.144 M168.400 248.200 C 167.850 248.514,167.158 248.778,166.863 248.786 C 165.569 248.820,119.353 294.650,118.936 296.313 C 118.417 298.382,119.040 303.217,119.942 304.120 C 120.414 304.592,120.800 304.771,120.800 304.517 C 120.800 304.264,120.485 303.742,120.100 303.357 C 119.575 302.833,119.369 301.850,119.274 299.429 L 119.148 296.200 142.674 272.747 L 166.200 249.294 168.525 248.903 C 172.183 248.289,177.555 250.019,177.591 251.824 C 177.605 252.494,178.706 253.827,179.003 253.531 C 179.267 253.266,177.686 250.726,177.093 250.464 C 176.924 250.390,176.538 250.081,176.236 249.779 C 174.581 248.124,170.109 247.223,168.400 248.200 M248.220 250.051 C 247.351 250.254,246.326 250.758,245.943 251.170 C 245.559 251.581,245.100 251.982,244.922 252.059 C 244.745 252.137,244.105 252.930,243.500 253.822 L 242.400 255.443 242.400 279.570 L 242.400 303.696 243.500 305.401 C 247.517 311.628,256.278 310.885,259.414 304.050 L 260.400 301.900 260.400 279.600 L 260.400 257.300 259.431 255.108 C 257.499 250.740,253.321 248.855,248.220 250.051 M255.648 251.300 C 255.864 251.685,256.306 252.000,256.632 252.000 C 256.958 252.000,257.343 252.315,257.488 252.700 C 257.632 253.085,257.957 253.580,258.210 253.800 C 259.633 255.038,260.387 297.572,259.083 303.016 C 258.102 307.109,255.760 308.800,251.072 308.800 L 247.711 308.800 245.956 307.037 C 242.455 303.522,242.800 306.522,242.800 279.600 C 242.800 252.659,242.449 255.682,245.994 252.127 L 247.787 250.329 251.522 250.465 C 254.573 250.575,255.329 250.728,255.648 251.300 M179.328 256.800 C 179.328 258.230,179.401 258.815,179.489 258.100 C 179.578 257.385,179.578 256.215,179.489 255.500 C 179.401 254.785,179.328 255.370,179.328 256.800 M178.248 260.610 C 177.891 260.966,177.600 261.419,177.600 261.617 C 177.600 262.500,132.381 307.179,130.712 307.946 C 129.584 308.464,129.273 308.744,129.800 308.765 C 130.240 308.783,131.204 308.429,131.941 307.979 C 133.480 307.041,176.945 263.682,178.356 261.677 C 179.365 260.243,179.296 259.561,178.248 260.610 M127.716 275.200 C 127.601 275.640,127.241 276.000,126.916 276.000 C 126.591 276.000,126.235 276.343,126.126 276.763 C 126.016 277.183,125.583 277.616,125.163 277.726 C 124.743 277.835,124.400 278.218,124.400 278.576 C 124.400 279.051,124.724 278.896,125.593 278.007 C 126.249 277.336,127.336 276.249,128.007 275.593 C 128.896 274.724,129.051 274.400,128.576 274.400 C 128.218 274.400,127.831 274.760,127.716 275.200 M340.860 297.301 C 340.827 297.687,340.440 298.675,340.000 299.496 C 339.560 300.316,339.200 301.210,339.200 301.482 C 339.200 301.924,338.089 304.428,337.195 306.000 C 337.007 306.330,336.257 307.740,335.528 309.133 C 334.799 310.526,333.977 311.853,333.701 312.082 C 332.915 312.734,333.111 313.276,333.967 312.817 C 334.390 312.591,334.854 311.865,334.999 311.203 C 335.145 310.541,335.404 310.000,335.575 310.000 C 335.953 310.000,338.000 306.132,338.000 305.417 C 338.000 305.137,338.360 304.450,338.800 303.891 C 339.240 303.331,339.600 302.490,339.600 302.021 C 339.600 301.552,339.974 300.661,340.432 300.042 C 340.978 299.304,341.205 298.517,341.092 297.758 C 340.997 297.121,340.893 296.916,340.860 297.301 M58.806 303.846 C 58.803 304.311,59.160 305.150,59.600 305.709 C 60.040 306.269,60.400 306.979,60.400 307.288 C 60.400 307.596,60.760 308.236,61.200 308.708 C 61.640 309.180,62.000 309.831,62.000 310.155 C 62.000 310.478,62.247 310.990,62.548 311.291 C 62.850 311.592,63.394 312.415,63.758 313.120 C 64.123 313.824,64.596 314.400,64.810 314.400 C 65.025 314.400,65.200 314.642,65.200 314.938 C 65.200 315.234,65.560 315.802,66.000 316.200 C 66.440 316.598,66.801 317.121,66.802 317.362 C 66.805 318.071,73.763 325.600,74.416 325.600 C 74.627 325.600,74.800 325.870,74.800 326.200 C 74.800 326.530,74.954 326.800,75.142 326.800 C 75.329 326.800,75.955 327.205,76.531 327.700 C 78.518 329.407,79.928 330.400,80.363 330.400 C 80.603 330.400,80.800 330.650,80.800 330.957 C 80.800 331.263,81.250 331.626,81.800 331.764 C 82.350 331.902,82.800 332.189,82.800 332.402 C 82.800 332.615,83.385 333.061,84.100 333.394 C 84.815 333.726,85.940 334.349,86.600 334.779 C 87.260 335.208,88.970 336.121,90.400 336.809 C 91.830 337.496,93.666 338.405,94.479 338.829 C 95.293 339.253,96.366 339.600,96.864 339.600 C 97.583 339.600,97.446 339.435,96.200 338.800 C 95.337 338.360,94.478 338.000,94.290 338.000 C 93.868 338.000,89.555 335.863,87.400 334.586 C 86.520 334.065,85.530 333.508,85.200 333.349 C 78.682 330.211,65.834 316.779,62.099 309.200 C 61.828 308.650,61.424 307.930,61.203 307.600 C 60.981 307.270,60.612 306.550,60.383 306.000 C 59.466 303.801,58.812 302.908,58.806 303.846 M120.800 305.428 C 120.800 306.191,125.341 308.800,126.667 308.800 C 127.769 308.800,126.814 308.108,125.018 307.605 C 124.026 307.327,123.002 306.843,122.740 306.528 C 122.172 305.844,120.800 305.066,120.800 305.428 M332.175 314.532 C 329.568 318.170,327.685 320.384,324.542 323.508 C 320.943 327.086,315.548 331.600,314.870 331.600 C 314.666 331.600,314.258 331.889,313.965 332.242 C 313.673 332.595,313.065 333.054,312.616 333.262 C 312.167 333.471,311.080 334.074,310.200 334.603 C 308.117 335.855,304.622 337.597,304.161 337.613 C 303.963 337.619,302.900 338.068,301.800 338.609 C 300.700 339.150,299.581 339.594,299.314 339.596 C 299.046 339.598,298.236 339.855,297.514 340.166 C 295.910 340.858,289.593 342.330,287.400 342.524 C 286.400 342.613,286.806 342.691,288.485 342.733 C 290.358 342.780,291.784 342.558,293.200 342.000 C 294.316 341.560,295.721 341.200,296.321 341.200 C 296.921 341.200,298.084 340.840,298.904 340.400 C 299.725 339.960,300.733 339.600,301.145 339.600 C 301.556 339.600,302.350 339.240,302.909 338.800 C 303.469 338.360,304.196 338.000,304.526 338.000 C 305.231 338.000,309.162 336.039,309.929 335.306 C 310.219 335.028,310.687 334.800,310.967 334.800 C 311.248 334.800,311.893 334.440,312.400 334.000 C 312.907 333.560,313.571 333.200,313.874 333.200 C 314.177 333.200,314.529 332.930,314.655 332.600 C 314.782 332.270,315.091 331.998,315.343 331.995 C 315.794 331.989,317.097 331.053,319.092 329.300 C 319.656 328.805,320.271 328.400,320.458 328.400 C 320.646 328.400,320.800 328.130,320.800 327.800 C 320.800 327.470,320.999 327.200,321.241 327.200 C 321.484 327.200,322.924 325.959,324.441 324.441 C 325.959 322.924,327.200 321.484,327.200 321.241 C 327.200 320.999,327.476 320.800,327.813 320.800 C 328.149 320.800,328.536 320.511,328.671 320.158 C 328.807 319.805,329.521 318.860,330.257 318.058 C 330.994 317.256,331.597 316.465,331.598 316.300 C 331.599 316.135,331.971 315.629,332.425 315.175 C 332.879 314.721,333.183 314.148,333.100 313.900 C 333.018 313.653,332.601 313.937,332.175 314.532 M98.744 340.413 C 99.301 340.877,100.287 341.201,101.144 341.202 C 101.945 341.204,103.140 341.492,103.800 341.843 C 104.537 342.235,106.235 342.524,108.200 342.592 C 109.960 342.653,110.770 342.631,110.000 342.543 C 107.791 342.290,101.532 340.789,100.086 340.166 C 98.243 339.372,97.629 339.484,98.744 340.413 M113.072 343.482 C 114.711 344.183,282.889 344.183,284.528 343.482 C 285.412 343.104,266.907 343.000,198.800 343.000 C 130.693 343.000,112.188 343.104,113.072 343.482 " stroke="none" fill="#fccdd2" fill-rule="evenodd"></path></g></svg>