<?xml version="1.0" standalone="no"?>
<!DOCTYPE svg PUBLIC "-//W3C//DTD SVG 20010904//EN"
 "http://www.w3.org/TR/2001/REC-SVG-20010904/DTD/svg10.dtd">
<svg version="1.0" xmlns="http://www.w3.org/2000/svg"
 width="1200.000000pt" height="675.000000pt" viewBox="0 0 1200.000000 675.000000"
 preserveAspectRatio="xMidYMid meet">

<g transform="translate(0.000000,675.000000) scale(0.100000,-0.100000)"
fill="#000000" stroke="none">
<path d="M1201 4259 c0 -19 5 -43 10 -54 6 -13 7 -4 3 30 -8 60 -14 72 -13 24z"/>
<path d="M1517 4180 c3 -11 9 -22 13 -25 5 -3 6 4 3 15 -3 11 -9 22 -13 25 -5
3 -6 -4 -3 -15z"/>
<path d="M1817 4183 c-4 -3 -7 -11 -7 -17 0 -6 5 -5 12 2 6 6 9 14 7 17 -3 3
-9 2 -12 -2z"/>
<path d="M946 4143 c-7 -33 -1 -140 9 -165 4 -10 14 -18 23 -18 9 0 27 -12 39
-27 13 -14 23 -24 23 -21 0 13 -31 66 -52 88 -20 21 -23 35 -23 97 0 74 -9 95
-19 46z"/>
<path d="M1540 4131 c0 -6 5 -13 10 -16 6 -3 10 1 10 9 0 9 -4 16 -10 16 -5 0
-10 -4 -10 -9z"/>
<path d="M1763 4128 c-15 -19 -12 -47 4 -41 7 3 13 11 13 19 0 7 8 18 18 23
15 9 15 10 -4 11 -12 0 -26 -6 -31 -12z"/>
<path d="M1241 4114 c0 -11 3 -14 6 -6 3 7 2 16 -1 19 -3 4 -6 -2 -5 -13z"/>
<path d="M1600 4099 c-8 -18 -18 -28 -26 -25 -8 3 -14 1 -14 -3 0 -5 -3 -18
-7 -28 -6 -17 -6 -17 14 0 11 9 24 17 30 17 6 0 16 14 22 31 13 38 13 39 2 39
-5 0 -14 -14 -21 -31z"/>
<path d="M1873 4063 c9 -2 23 -2 30 0 6 3 -1 5 -18 5 -16 0 -22 -2 -12 -5z"/>
<path d="M1708 4043 c-23 -27 -38 -59 -38 -84 0 -12 -7 -27 -15 -33 -9 -6 -18
-29 -22 -51 -3 -22 -10 -45 -15 -52 -10 -13 -18 -9 -56 29 -14 13 -20 14 -33
4 -14 -10 -15 -14 -4 -30 8 -10 18 -15 23 -12 5 3 20 -6 32 -19 22 -23 22 -25
4 -25 -16 0 -17 -2 -4 -11 11 -7 12 -12 3 -15 -7 -3 -9 -12 -6 -20 3 -8 0 -14
-6 -14 -20 0 -12 -36 14 -60 14 -13 25 -33 26 -44 1 -18 2 -18 8 4 5 14 5 32
1 40 -8 19 -3 82 8 89 14 9 22 67 11 78 -6 6 -3 18 9 34 29 36 52 86 44 93 -3
4 0 11 8 16 10 7 11 10 3 10 -26 0 -12 20 15 20 29 1 72 30 72 50 0 7 -8 6
-22 -4 -30 -21 -41 -20 -33 4 8 25 -7 26 -27 3z"/>
<path d="M710 4030 c6 -11 13 -20 16 -20 2 0 0 9 -6 20 -6 11 -13 20 -16 20
-2 0 0 -9 6 -20z"/>
<path d="M1557 4003 c-4 -3 -7 -26 -7 -51 0 -36 3 -42 13 -33 8 6 17 7 22 3 4
-4 4 4 0 18 -4 14 -12 28 -17 31 -5 3 -6 13 -2 22 6 18 2 22 -9 10z"/>
<path d="M760 3936 c0 -8 5 -18 10 -21 6 -3 10 1 10 9 0 8 -4 18 -10 21 -5 3
-10 -1 -10 -9z"/>
<path d="M1060 3901 c0 -5 -11 -8 -25 -6 -22 2 -23 0 -13 -13 7 -8 28 -21 46
-29 20 -8 32 -20 32 -32 0 -25 22 -41 47 -35 15 4 23 0 28 -15 3 -12 10 -21
14 -21 4 0 8 -6 8 -12 0 -7 3 -24 8 -37 6 -19 4 -23 -7 -18 -8 3 -21 1 -28 -3
-11 -7 -10 -11 2 -24 9 -9 18 -21 20 -28 3 -9 9 -8 22 5 10 10 13 17 5 17 -8
0 -8 4 1 15 18 22 52 15 66 -14 10 -18 9 -32 -1 -61 -14 -41 -12 -50 16 -50
26 0 30 -13 16 -49 -7 -19 -18 -31 -30 -31 -27 0 -15 -24 14 -28 40 -6 49 -20
43 -63 -4 -26 -3 -39 5 -39 15 0 51 -37 51 -53 0 -21 -50 -34 -88 -23 -27 8
-33 14 -32 35 3 45 1 51 -26 61 -20 8 -25 15 -21 31 5 19 2 20 -33 15 -33 -4
-40 -2 -45 15 -4 11 -1 26 5 34 13 16 7 45 -10 45 -5 0 -10 -9 -10 -19 0 -11
-4 -22 -9 -25 -5 -3 -7 -15 -4 -26 3 -11 1 -20 -4 -20 -18 0 -10 -35 14 -62
14 -14 23 -28 22 -30 -2 -1 4 -14 14 -28 17 -23 19 -24 31 -7 24 32 54 13 58
-38 2 -15 13 -35 28 -46 45 -34 50 -40 50 -60 0 -19 -4 -20 -37 -14 -21 4 -65
8 -98 8 l-60 2 2 30 c2 26 -10 44 -28 45 -4 0 -10 -16 -13 -35 -8 -38 -9 -39
-105 -19 -18 4 -22 1 -18 -10 4 -9 -1 -20 -11 -25 -12 -7 -2 -8 34 -4 46 5 53
3 63 -16 14 -26 26 -26 51 -1 17 17 23 18 40 8 11 -7 22 -19 25 -26 2 -7 1
-11 -4 -8 -5 3 -8 -6 -8 -19 0 -38 12 -38 38 -1 29 42 64 52 84 23 10 -14 11
-25 5 -32 -5 -7 -7 -15 -3 -18 3 -4 -8 -20 -25 -36 -28 -27 -30 -33 -21 -69
13 -60 14 -139 1 -227 -15 -103 -25 -125 -68 -154 -33 -23 -38 -24 -83 -12
-32 8 -78 10 -132 6 -52 -4 -95 -3 -111 4 -26 10 -27 9 -17 -12 16 -36 46 -48
118 -51 38 -1 80 -10 98 -19 32 -17 39 -17 156 -1 48 6 48 6 41 -20 -6 -25 -5
-27 22 -20 16 3 65 24 109 45 45 21 89 39 98 39 10 0 34 -11 55 -25 20 -13 57
-31 81 -40 54 -19 185 -19 226 0 21 9 24 14 12 14 -10 1 -28 6 -40 12 -19 11
-15 14 47 35 101 34 100 41 -6 41 -99 -1 -187 19 -223 51 -52 44 -55 56 -55
229 0 90 -4 163 -8 163 -16 0 -34 47 -27 69 8 27 39 27 66 0 16 -16 24 -18 32
-10 9 9 8 14 -3 21 -13 8 -12 11 5 24 11 9 26 16 34 16 10 0 12 9 7 33 -6 31
-2 38 44 80 27 25 50 51 50 56 0 16 -17 22 -45 15 -18 -4 -24 -11 -21 -23 6
-19 -9 -41 -46 -65 -18 -12 -28 -27 -28 -43 0 -34 -18 -63 -39 -63 -21 0 -39
35 -36 70 2 14 -5 39 -15 55 -10 17 -20 39 -22 50 -5 29 41 27 68 -3 l21 -24
8 29 c5 15 7 49 6 75 -2 37 1 47 16 52 10 3 21 5 25 3 12 -4 40 43 35 57 -7
19 12 36 40 36 13 0 23 3 23 8 0 4 14 13 31 21 37 16 33 23 -9 15 -17 -4 -30
-11 -29 -18 1 -6 -9 -11 -23 -12 -50 -1 -61 -4 -55 -14 4 -7 -2 -7 -19 0 -32
12 -39 1 -31 -44 6 -30 4 -34 -22 -43 -15 -6 -39 -8 -53 -6 -19 3 -22 1 -12
-9 14 -14 16 -64 2 -73 -5 -3 -10 -1 -10 6 0 7 -7 4 -15 -7 -11 -14 -14 -15
-15 -4 0 13 -1 13 -10 0 -5 -8 -7 -31 -4 -50 5 -33 3 -36 -28 -47 -73 -27
-110 25 -41 57 35 16 44 40 15 40 -25 0 -25 36 -1 54 18 12 19 15 4 29 -8 9
-22 14 -30 11 -8 -4 -15 -1 -15 6 0 6 -4 8 -10 5 -5 -3 -10 1 -10 10 0 9 -4
13 -10 10 -6 -4 -10 6 -10 23 0 20 7 32 23 40 21 10 21 11 -10 17 -33 7 -46
36 -23 50 17 10 11 33 -10 40 -14 4 -20 15 -20 36 0 16 -5 28 -10 26 -6 -1
-20 16 -33 38 -12 22 -32 44 -45 50 -12 5 -22 18 -22 27 0 10 -9 22 -20 28
-11 6 -20 8 -20 5 0 -3 -10 4 -22 15 -13 12 -23 25 -23 29 0 10 -48 61 -57 61
-5 0 -8 -4 -8 -9z m449 -735 c34 -27 32 -106 -4 -106 -22 0 -68 48 -61 65 2 7
0 16 -7 18 -8 3 -6 11 6 25 19 21 38 20 66 -2z m-85 -61 c11 -8 14 -15 7 -15
-7 0 -9 -4 -6 -10 8 -14 -24 -80 -38 -77 -14 2 -36 36 -37 54 0 6 4 23 10 37
11 29 35 33 64 11z"/>
<path d="M8935 3895 c-140 -25 -247 -100 -303 -211 -46 -92 -57 -154 -56 -304
1 -116 4 -144 24 -195 59 -153 151 -229 316 -260 263 -51 495 42 582 233 93
203 59 491 -75 628 -98 101 -294 145 -488 109z m233 -107 c69 -17 125 -78 152
-165 43 -135 37 -354 -12 -460 -45 -96 -150 -150 -277 -141 -96 7 -154 36
-191 95 -40 62 -49 96 -63 226 -19 181 11 313 89 388 62 60 192 85 302 57z"/>
<path d="M2952 3868 c2 -15 13 -24 38 -31 19 -5 38 -12 43 -16 4 -4 34 -92 66
-197 32 -104 84 -270 114 -369 31 -99 66 -213 78 -253 l21 -73 67 3 66 3 64
180 c34 99 89 254 121 345 51 144 59 162 67 140 6 -14 49 -140 97 -280 48
-140 97 -284 110 -320 l23 -65 64 -3 64 -3 73 228 c41 125 98 307 128 403 84
269 80 259 131 273 35 9 43 15 43 34 0 23 0 23 -156 23 l-155 0 3 -22 c3 -20
10 -23 55 -26 28 -2 57 -9 63 -17 9 -11 -12 -94 -97 -374 -59 -199 -110 -361
-113 -361 -7 0 -250 719 -250 738 0 8 21 12 70 12 68 0 70 1 70 25 l0 25 -190
0 -190 0 0 -25 c0 -19 5 -25 21 -25 33 0 60 -19 74 -52 12 -29 5 -53 -99 -364
-62 -183 -114 -336 -117 -339 -3 -3 -47 136 -98 307 -51 172 -102 340 -112
372 -10 33 -16 63 -12 67 5 5 37 9 73 11 59 3 65 5 68 26 l3 22 -196 0 -196 0
3 -22z"/>
<path d="M4522 3868 c2 -14 11 -24 23 -26 102 -15 95 15 95 -430 0 -213 -4
-392 -8 -398 -12 -19 -49 -34 -81 -34 -26 0 -31 -4 -31 -25 l0 -25 198 2 c189
3 197 4 197 23 0 16 -9 21 -46 26 -60 9 -87 24 -94 52 -3 12 -4 99 -3 192 l3
170 263 3 262 2 0 -194 c0 -222 4 -211 -89 -225 -37 -5 -46 -10 -46 -26 0 -19
8 -20 198 -23 l197 -2 0 25 c0 21 -5 25 -31 25 -32 0 -69 15 -81 34 -4 6 -8
185 -8 398 0 445 -7 415 95 430 12 2 21 12 23 26 l3 22 -198 -2 c-190 -3 -198
-4 -198 -23 0 -16 9 -21 46 -26 93 -14 90 -6 87 -202 l-3 -172 -230 -3 c-126
-2 -245 0 -262 3 l-33 6 0 159 c0 197 -1 196 130 213 8 1 15 11 15 22 0 19 -8
20 -198 23 l-198 2 3 -22z"/>
<path d="M5660 3866 c0 -20 6 -24 42 -29 80 -11 78 1 78 -427 0 -428 2 -416
-78 -427 -36 -5 -42 -9 -42 -29 l0 -24 179 0 c135 0 180 3 184 13 7 22 -5 37
-30 37 -27 0 -64 17 -75 34 -4 6 -8 185 -8 398 l0 387 26 20 c15 12 39 21 54
21 19 0 29 6 33 19 3 11 2 22 -1 25 -3 3 -86 6 -184 6 l-178 0 0 -24z"/>
<path d="M6130 3690 l0 -200 28 0 c27 0 28 2 39 83 17 116 30 154 66 193 37
40 106 57 209 52 l63 -3 2 -395 c2 -217 -1 -401 -6 -409 -5 -7 -31 -19 -57
-26 -37 -9 -49 -17 -49 -31 0 -18 11 -19 183 -22 l182 -2 0 23 c0 21 -6 25
-42 30 -81 11 -79 -3 -76 441 l3 391 85 0 c47 0 101 -4 121 -8 77 -16 123 -97
137 -245 7 -64 8 -67 35 -70 l27 -3 0 200 0 201 -475 0 -475 0 0 -200z"/>
<path d="M7172 3868 c2 -17 12 -24 43 -30 77 -16 75 -3 75 -428 0 -428 2 -416
-78 -427 -36 -5 -42 -9 -42 -29 l0 -24 410 0 410 0 4 23 c7 33 29 338 25 341
-2 2 -14 7 -26 10 -19 6 -22 2 -33 -51 -24 -117 -67 -185 -145 -226 -36 -19
-56 -21 -215 -22 l-175 0 -3 198 -2 197 100 0 c56 0 110 -5 120 -10 25 -14 41
-44 55 -105 9 -39 16 -51 32 -53 29 -4 31 5 38 216 l7 182 -25 0 c-22 0 -26
-6 -31 -43 -8 -55 -39 -105 -72 -117 -31 -12 -194 -13 -212 -2 -9 7 -12 49
-10 178 l3 169 190 0 c181 0 192 -1 227 -23 40 -25 82 -98 94 -165 5 -31 10
-38 28 -35 20 3 21 9 24 151 l3 147 -411 0 -411 0 3 -22z"/>
<path d="M9975 3878 c-38 -107 -324 -851 -328 -855 -3 -3 -26 -8 -52 -10 -45
-6 -45 -6 -45 -44 l0 -39 175 0 175 0 0 35 c0 33 -2 35 -32 36 -53 1 -92 10
-99 21 -7 11 -3 29 26 111 l17 47 197 0 198 0 28 -81 c33 -96 30 -100 -60 -97
l-60 2 -3 -37 -3 -37 235 0 236 0 0 35 c0 30 -4 35 -27 41 -66 13 -68 17 -121
161 -28 76 -99 270 -158 431 l-107 292 -94 0 c-66 0 -95 -4 -98 -12z m45 -172
c0 -2 31 -88 69 -192 37 -104 72 -199 75 -211 l7 -23 -161 0 c-126 0 -161 3
-157 13 2 6 37 103 77 215 41 111 77 202 82 202 4 0 8 -2 8 -4z"/>
<path d="M10680 3852 c0 -39 1 -39 42 -45 23 -3 48 -14 55 -23 10 -14 13 -101
13 -380 0 -402 4 -381 -70 -391 -39 -5 -40 -7 -40 -45 l0 -38 213 2 212 3 0
35 c0 34 -2 35 -42 41 -70 9 -73 15 -73 153 l0 121 84 73 c46 39 88 72 94 72
11 0 239 -359 242 -381 5 -34 -1 -38 -62 -41 l-63 -3 -3 -37 -3 -38 255 0 256
0 0 40 0 40 -40 0 c-74 0 -87 14 -263 284 -92 140 -167 259 -167 265 0 15 231
209 276 231 22 11 52 20 67 20 25 0 27 3 27 40 l0 40 -210 0 -210 0 0 -40 0
-40 44 0 c48 0 71 -18 62 -48 -5 -16 -310 -290 -367 -330 -18 -13 -19 -7 -19
161 0 123 4 178 13 190 6 10 32 21 57 25 43 7 45 9 45 42 l0 35 -212 3 -213 2
0 -38z"/>
<path d="M2240 3861 c0 -11 -3 -27 -7 -37 -4 -11 -3 -15 4 -11 13 8 23 67 11
67 -4 0 -8 -9 -8 -19z"/>
<path d="M838 3830 c2 -17 12 -30 23 -33 13 -4 19 -14 19 -34 0 -16 5 -34 12
-41 12 -12 -5 -16 -49 -15 -25 1 -12 -27 15 -32 40 -9 56 -19 69 -45 13 -27
49 -49 79 -50 28 0 47 -24 40 -48 -4 -11 0 -24 8 -31 12 -10 20 -9 38 5 l23
17 -54 56 c-31 31 -59 55 -63 54 -4 -2 -8 4 -8 13 0 8 -4 12 -10 9 -5 -3 -10
-1 -10 4 0 6 -7 11 -15 11 -17 0 -15 42 3 48 6 2 -13 29 -43 60 -30 30 -55 59
-55 63 0 4 -6 9 -13 12 -10 4 -12 -3 -9 -23z"/>
<path d="M1341 3818 c1 -18 3 -25 6 -15 2 9 8 17 13 17 5 0 7 7 4 15 -11 27
-24 16 -23 -17z"/>
<path d="M1853 3833 c-15 -5 -17 -23 -4 -23 5 0 11 7 15 15 3 8 4 15 3 14 -1
0 -8 -3 -14 -6z"/>
<path d="M580 3786 c0 -2 9 -6 20 -9 11 -3 18 -1 14 4 -5 9 -34 13 -34 5z"/>
<path d="M696 3761 c-17 -6 -15 -9 13 -21 36 -14 50 -8 31 15 -14 17 -16 17
-44 6z"/>
<path d="M1327 3750 c-10 -37 -8 -80 3 -80 5 0 14 17 19 38 13 46 14 55 2 48
-5 -4 -11 -1 -13 6 -3 7 -7 1 -11 -12z"/>
<path d="M1853 3754 c-18 -9 -30 -20 -27 -25 3 -5 18 1 35 13 43 32 41 36 -8
12z"/>
<path d="M2279 3755 c-3 -2 -24 -6 -48 -8 -23 -2 -46 -8 -49 -13 -4 -5 -19
-17 -34 -27 -31 -19 -36 -35 -13 -43 10 -4 30 9 55 35 27 27 49 41 67 42 16 1
39 5 53 9 l25 8 -26 1 c-14 1 -28 -1 -30 -4z"/>
<path d="M1770 3741 c0 -4 -11 -25 -25 -45 -13 -20 -20 -36 -15 -36 6 0 6 -10
0 -27 -10 -27 -9 -27 6 -8 9 11 22 34 30 52 8 18 22 37 31 43 17 11 17 11 -1
6 -13 -5 -17 -2 -12 9 3 8 1 15 -4 15 -6 0 -10 -4 -10 -9z"/>
<path d="M1100 3686 c0 -16 27 -29 42 -20 7 5 4 12 -7 21 -24 17 -35 17 -35
-1z"/>
<path d="M2090 3662 c-21 -7 -30 -24 -24 -44 2 -9 0 -19 -6 -23 -5 -3 -10 -13
-10 -22 0 -13 5 -12 24 6 14 13 22 29 19 37 -3 8 0 21 7 29 15 18 11 24 -10
17z"/>
<path d="M390 3610 c0 -6 7 -10 15 -10 8 0 15 2 15 4 0 2 -7 6 -15 10 -8 3
-15 1 -15 -4z"/>
<path d="M1684 3589 c-4 -8 12 -49 20 -49 1 0 3 6 3 13 0 6 4 19 7 28 7 16
-20 23 -30 8z"/>
<path d="M550 3575 c7 -8 16 -15 21 -15 5 0 9 7 9 15 0 9 -9 15 -21 15 -18 0
-19 -2 -9 -15z"/>
<path d="M1550 3572 c0 -12 4 -22 8 -22 14 0 31 -47 25 -69 -4 -16 -2 -20 10
-15 19 7 28 74 10 74 -15 0 -17 16 -3 25 6 4 8 11 4 16 -4 7 -10 6 -18 0 -9
-7 -16 -7 -24 1 -9 9 -12 7 -12 -10z"/>
<path d="M2012 3558 c-7 -7 -12 -19 -12 -28 0 -10 -17 -25 -41 -35 -22 -10
-45 -27 -50 -37 -6 -10 -13 -17 -17 -14 -4 2 -20 -6 -37 -19 l-29 -24 28 -10
c41 -16 47 -14 44 17 -3 25 0 27 29 24 27 -2 34 2 38 21 3 12 19 29 34 38 16
10 30 28 33 43 6 30 -3 41 -20 24z"/>
<path d="M475 3530 c-8 -12 20 -24 35 -15 5 3 10 10 10 16 0 12 -37 12 -45 -1z"/>
<path d="M675 3519 c-11 -16 4 -59 20 -59 10 0 15 -10 15 -27 1 -30 25 -71 36
-60 4 3 15 2 25 -4 22 -11 62 -90 52 -100 -16 -15 -81 -26 -150 -25 -40 1 -74
-2 -76 -7 -1 -4 -23 -3 -48 1 -28 5 -54 5 -63 0 -9 -5 -22 -6 -29 -1 -14 9
-11 8 -94 26 -35 8 -63 13 -63 11 0 -8 55 -27 72 -25 9 1 27 -4 40 -12 33 -21
88 -29 126 -18 24 7 32 6 32 -3 0 -21 102 -30 116 -10 18 23 77 29 93 10 19
-22 106 -23 97 0 -4 11 4 19 30 30 19 8 32 19 29 24 -3 5 -12 7 -20 4 -7 -3
-23 -1 -34 6 -16 8 -21 8 -21 -2 0 -26 -20 9 -22 39 -2 22 -18 47 -54 85 -27
29 -53 61 -57 70 -4 11 -12 15 -22 12 -14 -6 -19 5 -16 34 2 15 -5 16 -14 1z"/>
<path d="M1416 3504 c-8 -21 -1 -28 19 -20 9 3 15 11 13 18 -7 19 -25 20 -32
2z"/>
<path d="M2360 3500 c-8 -5 -12 -12 -9 -15 4 -3 12 1 19 10 14 17 11 19 -10 5z"/>
<path d="M1537 3473 c-13 -13 -7 -32 8 -27 8 4 15 12 15 20 0 15 -12 19 -23 7z"/>
<path d="M2306 3458 c3 -5 10 -6 15 -3 13 9 11 12 -6 12 -8 0 -12 -4 -9 -9z"/>
<path d="M1042 3440 c13 -21 38 -27 38 -10 0 9 -31 30 -44 30 -4 0 -1 -9 6
-20z"/>
<path d="M2258 3453 c7 -3 16 -2 19 1 4 3 -2 6 -13 5 -11 0 -14 -3 -6 -6z"/>
<path d="M2070 3415 c-7 -9 -20 -13 -28 -10 -17 6 -52 -21 -52 -40 0 -17 -28
-27 -51 -20 -14 5 -19 1 -19 -13 0 -11 -6 -22 -12 -25 -7 -2 -11 -7 -8 -10 11
-12 100 17 105 34 8 24 42 30 74 12 26 -16 29 -15 50 6 l22 22 -34 -4 c-18 -2
-41 -1 -52 3 -18 6 -17 8 8 25 26 17 36 35 18 35 -5 0 -14 -7 -21 -15z"/>
<path d="M1790 3375 c-7 -8 -19 -15 -26 -15 -10 0 -8 -6 7 -21 12 -12 18 -27
14 -38 -5 -17 1 -19 50 -20 33 0 55 4 55 11 0 6 -11 8 -25 6 -17 -4 -25 -1
-25 8 0 8 -6 11 -15 8 -11 -5 -13 -2 -8 12 4 12 3 15 -5 10 -17 -10 -15 5 4
32 13 19 13 22 1 22 -8 0 -20 -7 -27 -15z"/>
<path d="M2170 3350 c0 -5 10 -10 23 -10 18 0 19 2 7 10 -19 13 -30 13 -30 0z"/>
<path d="M257 3289 c7 -7 15 -10 18 -7 3 3 -2 9 -12 12 -14 6 -15 5 -6 -5z"/>
<path d="M1675 3280 c-3 -5 1 -10 10 -10 9 0 13 5 10 10 -3 6 -8 10 -10 10 -2
0 -7 -4 -10 -10z"/>
<path d="M973 3238 c31 -27 34 -38 10 -38 -15 0 -15 -2 -3 -14 8 -8 25 -17 37
-20 19 -6 22 -4 20 21 -2 22 -12 33 -47 51 l-45 24 28 -24z"/>
<path d="M1983 3197 c-17 -7 -35 -15 -39 -19 -14 -15 21 -7 56 12 39 21 31 25
-17 7z"/>
<path d="M2410 3179 c0 -5 5 -7 10 -4 6 3 10 8 10 11 0 2 -4 4 -10 4 -5 0 -10
-5 -10 -11z"/>
<path d="M1848 3139 c-11 -6 -15 -16 -11 -26 4 -11 3 -14 -6 -9 -6 4 -18 2
-26 -4 -8 -7 -15 -9 -15 -4 0 5 -4 3 -9 -5 -8 -12 -12 -12 -24 -2 -12 9 -16 9
-20 -1 -3 -8 -9 -4 -15 12 -10 24 -11 24 -11 3 -1 -12 5 -28 13 -35 7 -8 17
-24 20 -36 9 -27 23 -28 55 -3 24 18 25 18 58 0 40 -22 61 -24 88 -6 11 7 34
12 50 11 48 -4 125 16 125 32 0 18 -76 20 -82 2 -4 -12 -185 -14 -197 -2 -3 3
6 16 21 29 17 15 26 30 22 39 -7 18 -13 19 -36 5z"/>
<path d="M2290 3129 l-25 -21 25 7 c31 9 33 11 28 25 -2 7 -13 3 -28 -11z"/>
<path d="M807 3129 c-9 -5 -22 -7 -27 -4 -6 3 -10 -3 -10 -14 0 -12 6 -21 12
-21 7 0 -11 -16 -39 -35 -47 -31 -72 -55 -59 -55 6 0 76 45 95 62 8 7 26 13
40 14 15 2 29 3 34 3 12 2 8 32 -7 47 -17 16 -16 16 -39 3z"/>
<path d="M2160 3096 c0 -9 -4 -16 -10 -16 -5 0 -10 -4 -10 -9 0 -5 18 -4 40 1
45 12 48 31 7 36 -19 2 -27 -1 -27 -12z"/>
<path d="M621 3081 c-7 -5 -9 -11 -4 -14 6 -4 19 0 29 8 15 11 16 14 4 15 -8
0 -21 -4 -29 -9z"/>
<path d="M3393 2655 c-60 -26 -90 -110 -63 -179 19 -51 116 -84 160 -56 11 7
3 10 -28 10 -65 0 -97 21 -110 71 -22 86 35 157 116 145 33 -5 44 7 16 18 -25
9 -56 6 -91 -9z"/>
<path d="M4362 2662 l-33 -3 3 -121 c2 -86 7 -123 16 -126 8 -2 12 11 12 46 0
49 0 49 36 55 95 16 116 123 29 145 -16 4 -45 6 -63 4z m85 -39 c30 -40 -3
-93 -57 -93 l-30 0 0 61 0 62 37 -6 c21 -4 44 -14 50 -24z"/>
<path d="M9076 2659 c-66 -18 -103 -89 -86 -164 14 -63 76 -95 155 -81 l35 7
0 59 0 60 -35 0 c-19 0 -35 -4 -35 -10 0 -5 11 -10 25 -10 23 0 25 -4 25 -45
l0 -45 -44 0 c-79 0 -123 61 -103 142 12 48 45 69 108 70 27 0 49 4 49 9 0 5
-8 9 -17 10 -10 0 -25 2 -33 3 -8 2 -28 -1 -44 -5z"/>
<path d="M3870 2593 c-53 -162 -58 -184 -47 -180 6 2 16 19 22 38 11 32 15 34
62 37 l50 3 15 -41 c9 -22 22 -40 28 -40 7 0 10 7 6 15 -3 8 -17 54 -32 102
-35 115 -44 133 -65 133 -12 0 -23 -18 -39 -67z m64 -20 c9 -28 16 -54 16 -57
0 -3 -19 -6 -41 -6 -35 0 -41 3 -36 18 3 9 11 38 18 64 15 55 20 53 43 -19z"/>
<path d="M4802 2540 c4 -161 22 -163 26 -2 2 105 0 122 -13 122 -13 0 -15 -17
-13 -120z"/>
<path d="M5130 2651 c0 -6 18 -11 41 -13 l41 -3 2 -105 c2 -143 20 -143 24 0
l3 110 39 0 c22 0 40 5 40 10 0 6 -38 10 -95 10 -53 0 -95 -4 -95 -9z"/>
<path d="M5626 2548 c-21 -62 -40 -119 -43 -127 -3 -8 0 -12 8 -9 7 2 18 20
24 39 11 32 15 34 62 37 l50 3 15 -41 c9 -22 21 -40 27 -40 19 0 19 -3 -49
188 -34 94 -49 86 -94 -50z m78 28 c9 -27 16 -53 16 -58 0 -4 -18 -8 -40 -8
-22 0 -40 2 -40 5 0 22 35 124 40 118 4 -4 15 -30 24 -57z"/>
<path d="M6100 2535 l0 -125 65 0 c78 0 88 18 13 22 l-53 3 -3 113 c-4 155
-22 145 -22 -13z"/>
<path d="M6905 2583 c-3 -43 -8 -99 -11 -125 -5 -40 -3 -48 10 -48 12 0 16 12
17 53 1 28 4 79 8 112 l6 60 34 -103 c32 -95 45 -121 57 -110 2 3 21 51 43
107 l38 102 6 -53 c4 -29 7 -79 7 -111 0 -43 3 -58 13 -54 9 3 11 33 8 118 -2
63 -5 117 -8 122 -2 4 -12 7 -22 7 -13 0 -26 -25 -51 -100 -19 -55 -38 -100
-41 -100 -3 0 -21 45 -39 100 -25 76 -38 100 -51 100 -14 0 -18 -13 -24 -77z"/>
<path d="M7537 2653 c-6 -11 -77 -230 -77 -238 0 -20 25 6 35 36 11 32 15 34
62 37 l50 3 15 -41 c9 -22 21 -40 27 -40 17 0 -72 245 -91 248 -9 2 -18 -1
-21 -5z m42 -70 c8 -27 16 -54 19 -60 3 -9 -8 -13 -37 -13 -23 0 -41 3 -41 6
0 18 33 114 39 114 3 0 13 -21 20 -47z"/>
<path d="M7980 2536 c0 -77 4 -126 10 -126 6 0 10 43 10 108 1 123 -4 124 83
-17 29 -47 58 -86 65 -89 9 -3 12 26 12 122 0 85 -4 126 -11 126 -7 0 -10 -32
-7 -100 1 -55 0 -99 -4 -98 -4 2 -34 46 -66 98 -84 134 -92 132 -92 -24z"/>
<path d="M8529 2553 c-20 -60 -40 -116 -44 -125 -5 -13 -2 -18 9 -18 9 0 20
15 27 40 l12 40 52 0 c49 0 53 -2 58 -27 8 -35 24 -60 33 -50 4 4 -11 60 -33
124 -54 159 -65 161 -114 16z m78 22 c11 -30 18 -57 15 -60 -3 -3 -23 -5 -44
-5 -27 0 -38 4 -36 13 2 6 10 33 18 60 8 26 17 47 21 47 3 0 15 -25 26 -55z"/>
<path d="M9510 2535 l0 -125 70 0 c40 0 70 4 70 10 0 6 -25 10 -55 10 l-55 0
0 50 0 50 50 0 c28 0 50 5 50 10 0 6 -22 10 -49 10 -54 0 -59 5 -53 56 4 33 5
34 53 34 27 0 49 5 49 10 0 6 -28 10 -65 10 l-65 0 0 -125z"/>
<path d="M9980 2618 c0 -24 -3 -80 -7 -125 -4 -60 -3 -83 6 -83 7 0 11 21 12
58 1 31 4 82 8 112 l6 55 35 -105 c22 -66 40 -105 49 -105 8 0 28 40 50 103
20 56 40 100 44 96 4 -4 7 -37 7 -73 0 -80 10 -141 22 -141 8 0 3 145 -8 218
-9 57 -33 35 -70 -63 -19 -49 -34 -97 -35 -105 -1 -20 -11 3 -50 113 -24 68
-35 87 -50 87 -16 0 -19 -7 -19 -42z"/>
<path d="M10550 2535 l0 -125 70 0 c84 0 94 18 13 22 l-58 3 -3 48 -3 47 55 0
c71 0 73 18 4 22 l-53 3 -3 43 -3 42 55 0 c31 0 56 5 56 10 0 6 -28 10 -65 10
l-65 0 0 -125z"/>
<path d="M11010 2535 c0 -77 4 -125 10 -125 6 0 10 44 10 112 l0 112 33 -55
c69 -113 108 -169 117 -169 6 0 10 51 10 125 0 83 -4 125 -11 125 -7 0 -10
-32 -9 -92 2 -123 2 -128 -12 -103 -46 84 -122 195 -134 195 -11 0 -14 -24
-14 -125z"/>
<path d="M11500 2649 c0 -6 15 -9 38 -7 l37 3 3 -118 c4 -153 22 -155 22 -2
l0 115 40 0 c22 0 40 5 40 10 0 6 -37 10 -90 10 -58 0 -90 -4 -90 -11z"/>
</g>
</svg>
