<?xml version="1.0" standalone="no"?>
<!DOCTYPE svg PUBLIC "-//W3C//DTD SVG 20010904//EN"
 "http://www.w3.org/TR/2001/REC-SVG-20010904/DTD/svg10.dtd">
<svg version="1.0" xmlns="http://www.w3.org/2000/svg"
 width="200.000000pt" height="200.000000pt" viewBox="0 0 200.000000 200.000000"
 preserveAspectRatio="xMidYMid meet">

<g transform="translate(0.000000,200.000000) scale(0.100000,-0.100000)"
fill="#000000" stroke="none">
<path d="M70 1070 l0 -340 935 0 935 0 0 340 0 340 -935 0 -935 0 0 -340z
m1785 260 c-9 -14 -1691 -14 -1700 0 -4 7 282 10 850 10 568 0 854 -3 850 -10z
m-1117 -252 l-3 -213 -247 -3 -248 -2 0 215 0 215 250 0 250 0 -2 -212z m133
132 c12 -46 29 -68 29 -37 0 6 5 29 11 50 8 30 15 37 34 37 25 0 25 -1 25 -85
0 -69 -3 -85 -15 -85 -11 0 -15 13 -16 53 l-1 52 -16 -52 c-19 -69 -46 -73
-62 -10 -17 65 -18 66 -19 10 -1 -40 -5 -53 -16 -53 -12 0 -15 16 -15 85 0 83
1 85 24 85 21 0 26 -7 37 -50z m171 -17 c3 -57 6 -68 22 -71 27 -6 36 15 36
81 0 50 2 58 18 55 14 -3 17 -15 17 -69 0 -80 -13 -99 -66 -99 -52 0 -69 26
-69 107 0 56 2 63 20 63 17 0 19 -8 22 -67z m238 47 c0 -13 -7 -20 -20 -20
-16 0 -19 -8 -22 -62 -2 -50 -6 -63 -20 -66 -16 -3 -18 5 -18 62 0 64 -1 66
-25 66 -18 0 -25 5 -25 20 0 18 7 20 65 20 58 0 65 -2 65 -20z m60 -50 c4 -57
8 -65 25 -65 17 0 21 8 25 65 4 51 9 66 23 68 15 3 17 -5 17 -67 0 -81 -13
-101 -65 -101 -52 0 -65 20 -65 101 0 62 2 70 18 67 13 -2 18 -17 22 -68z
m216 23 c9 -27 23 -63 31 -82 16 -42 17 -41 -6 -41 -10 0 -21 7 -25 15 -3 9
-18 15 -36 15 -18 0 -33 -6 -36 -15 -5 -13 -44 -23 -44 -11 0 2 11 35 25 72
14 38 28 75 30 82 2 6 13 12 24 12 14 0 24 -13 37 -47z m94 -17 l0 -65 37 -3
c27 -2 39 -8 41 -20 3 -16 -5 -18 -57 -18 l-61 0 0 78 c0 80 3 92 27 92 9 0
13 -17 13 -64z m-730 -161 c0 -9 -10 -15 -25 -16 -46 -3 -50 -4 -53 -21 -3
-15 4 -18 32 -18 25 0 36 -4 36 -15 0 -10 -11 -15 -35 -15 -33 0 -35 -2 -35
-36 0 -28 -4 -35 -17 -32 -11 2 -17 12 -16 31 1 15 1 52 2 82 l1 55 55 0 c42
0 55 -3 55 -15z m60 -50 c0 -49 4 -67 15 -71 29 -12 45 16 45 77 0 46 3 59 15
59 12 0 15 -14 15 -69 0 -80 -13 -101 -62 -101 -53 0 -68 23 -68 102 0 61 2
68 20 68 18 0 20 -7 20 -65z m187 18 l28 -48 5 45 c4 32 10 46 23 48 15 3 17
-6 17 -82 0 -75 -2 -86 -18 -86 -10 0 -30 21 -49 53 l-32 52 -1 -52 c0 -46 -3
-53 -20 -53 -18 0 -20 7 -20 85 0 78 2 85 20 85 12 0 29 -17 47 -47z m217 26
c20 -16 26 -29 26 -60 0 -57 -34 -89 -95 -89 l-45 0 0 85 0 85 44 0 c29 0 52
-7 70 -21z m466 -209 c-20 -13 -1687 -12 -1695 1 -4 5 319 9 852 9 565 0 853
-4 843 -10z"/>
<path d="M420 1262 c0 -5 29 -81 65 -168 99 -239 83 -227 -57 43 -23 45 -46
79 -52 76 -5 -3 -6 -1 -2 6 14 22 -15 41 -60 41 l-44 0 0 -185 0 -185 71 0
c53 0 70 3 66 13 -64 161 -102 253 -106 257 -6 5 -11 40 -6 40 2 0 45 -70 96
-155 93 -154 94 -155 129 -155 l36 0 4 88 c3 48 5 132 5 187 l0 100 -72 3
c-40 2 -73 -1 -73 -6z"/>
<path d="M626 1262 c-2 -4 -14 -78 -26 -163 -11 -85 -23 -166 -26 -181 l-6
-28 71 0 71 0 -2 188 -3 187 -37 3 c-20 2 -39 -1 -42 -6z m59 -52 c0 -18 -6
-26 -23 -28 -24 -4 -38 18 -28 44 3 9 15 14 28 12 17 -2 23 -10 23 -28z m-3
-62 c2 -7 3 -55 2 -106 -1 -73 -5 -97 -19 -112 -25 -28 -49 -27 -35 1 7 12 10
62 8 125 -3 101 -2 104 18 104 12 0 24 -6 26 -12z"/>
<path d="M1507 1180 c-4 -15 0 -20 13 -20 13 0 17 5 13 20 -3 11 -9 20 -13 20
-4 0 -10 -9 -13 -20z"/>
<path d="M1316 1013 c-3 -4 -6 -26 -6 -50 0 -42 1 -44 28 -41 24 3 27 7 27 42
0 30 -5 40 -22 47 -11 4 -24 5 -27 2z"/>
<path d="M250 639 l0 -50 33 3 c29 3 32 6 33 38 1 43 -11 60 -42 60 -22 0 -24
-4 -24 -51z m50 21 c0 -5 -7 -10 -15 -10 -8 0 -15 5 -15 10 0 6 7 10 15 10 8
0 15 -4 15 -10z m-2 -42 c-6 -18 -28 -21 -28 -4 0 9 7 16 16 16 9 0 14 -5 12
-12z"/>
<path d="M382 643 c3 -46 4 -48 33 -48 26 0 31 5 39 38 7 26 6 41 -2 49 -9 9
-12 5 -12 -19 0 -41 -9 -63 -26 -63 -10 0 -14 12 -14 39 0 22 -5 43 -11 46 -7
5 -9 -9 -7 -42z"/>
<path d="M520 641 c0 -28 5 -51 10 -51 6 0 10 20 10 44 0 25 -4 48 -10 51 -6
4 -10 -13 -10 -44z"/>
<path d="M600 641 l0 -51 33 1 c23 1 26 3 10 6 -19 4 -23 11 -23 43 0 21 -4
42 -10 45 -6 4 -10 -13 -10 -44z"/>
<path d="M690 680 c0 -5 6 -10 14 -10 10 0 16 -14 19 -42 l4 -43 1 43 c1 30 6
42 17 42 8 0 15 5 15 10 0 6 -16 10 -35 10 -19 0 -35 -4 -35 -10z"/>
<path d="M894 665 c-24 -37 -6 -75 36 -75 42 0 60 38 36 75 -9 14 -25 25 -36
25 -11 0 -27 -11 -36 -25z m61 -16 c5 -14 1 -27 -9 -37 -15 -15 -17 -15 -32 0
-20 20 -10 58 16 58 10 0 22 -10 25 -21z"/>
<path d="M1030 640 c0 -27 5 -50 10 -50 6 0 10 15 10 33 l0 32 21 -32 c12 -18
25 -33 30 -33 5 0 8 24 8 53 -2 47 -2 49 -8 17 l-7 -35 -20 32 c-28 48 -44 42
-44 -17z"/>
<path d="M1250 640 c0 -48 19 -74 21 -27 l0 22 16 -22 c15 -23 40 -33 27 -12
-4 7 -7 26 -6 43 1 32 -11 46 -40 46 -15 0 -18 -9 -18 -50z m40 15 c0 -8 -4
-15 -9 -15 -13 0 -22 16 -14 24 11 11 23 6 23 -9z"/>
<path d="M1370 653 c0 -51 11 -65 46 -61 27 3 29 6 32 51 2 26 -1 47 -7 47 -5
0 -11 -19 -13 -42 -2 -30 -8 -43 -18 -43 -10 0 -16 13 -18 43 -4 52 -22 56
-22 5z"/>
<path d="M1510 640 l0 -50 33 1 c23 1 26 3 10 6 -20 4 -23 11 -23 49 0 24 -4
44 -10 44 -5 0 -10 -22 -10 -50z"/>
<path d="M1630 640 c0 -50 0 -50 33 -49 29 1 29 2 8 8 -31 8 -40 31 -12 31 12
0 21 5 21 10 0 6 -9 10 -20 10 -11 0 -20 5 -20 10 0 6 9 10 20 10 11 0 20 5
20 10 0 6 -11 10 -25 10 -23 0 -25 -3 -25 -50z"/>
<path d="M1752 678 c-18 -18 -15 -36 8 -43 11 -3 20 -13 20 -22 0 -10 -6 -14
-20 -10 -11 3 -20 1 -20 -5 0 -5 12 -8 28 -6 34 4 44 43 13 53 -27 8 -27 25
-1 25 11 0 20 5 20 10 0 14 -33 13 -48 -2z"/>
</g>
</svg>
