<?xml version="1.0" standalone="no"?>
<!DOCTYPE svg PUBLIC "-//W3C//DTD SVG 20010904//EN"
 "http://www.w3.org/TR/2001/REC-SVG-20010904/DTD/svg10.dtd">
<svg version="1.0" xmlns="http://www.w3.org/2000/svg"
 width="400.000000pt" height="300.000000pt" viewBox="0 0 400.000000 300.000000"
 preserveAspectRatio="xMidYMid meet">

<g transform="translate(0.000000,300.000000) scale(0.100000,-0.100000)"
fill="#000000" stroke="none">
<path d="M721 1624 c4 -86 4 -86 43 -120 28 -24 49 -34 73 -34 28 0 33 -3 33
-24 0 -13 -3 -32 -6 -41 -8 -20 -56 -45 -88 -45 -26 0 -69 -37 -60 -52 7 -12
107 -10 141 3 50 19 83 70 83 130 0 39 31 39 71 0 21 -22 29 -39 29 -65 0 -35
27 -76 50 -76 6 0 10 29 10 68 0 104 -34 152 -115 162 -34 4 -40 9 -43 31 -4
36 41 79 82 79 39 0 76 25 76 51 0 16 -7 19 -55 19 -54 0 -104 -17 -132 -46
-20 -19 -43 -79 -43 -109 0 -23 -3 -25 -22 -19 -13 3 -29 12 -37 18 -18 15
-41 69 -41 99 0 22 -27 57 -44 57 -5 0 -6 -39 -5 -86z"/>
<path d="M1218 1687 c-31 -29 -43 -90 -29 -144 16 -59 34 -70 134 -78 81 -6
87 -8 93 -31 11 -45 0 -54 -67 -54 -52 0 -62 3 -66 20 -4 17 -14 20 -54 20
-53 0 -55 -3 -38 -60 17 -55 50 -70 153 -70 135 0 176 29 176 126 0 45 -22
114 -37 114 -47 1 -178 22 -189 31 -15 13 -19 45 -6 53 5 3 27 8 49 12 34 5
45 2 62 -15 15 -15 34 -21 67 -21 l47 0 -7 41 c-11 67 -33 78 -157 79 -98 0
-108 -2 -131 -23z"/>
<path d="M1646 1648 c-10 -35 -24 -81 -31 -103 -18 -57 -53 -184 -60 -222 l-7
-33 50 0 c48 0 49 0 61 40 l12 40 68 0 c73 0 84 -6 95 -52 6 -26 10 -28 56
-28 28 0 50 4 50 8 0 5 -9 40 -21 78 -11 38 -27 94 -35 124 -9 30 -22 73 -29
95 -8 22 -17 57 -21 78 l-6 37 -83 0 -82 0 -17 -62z m126 -96 c9 -37 20 -77
24 -89 6 -22 4 -23 -45 -23 -49 0 -51 1 -51 28 1 15 7 45 15 67 8 22 15 50 15
63 0 47 26 20 42 -46z"/>
<path d="M1980 1500 l0 -210 49 0 49 0 -5 158 c-4 110 -2 154 5 147 9 -8 66
-175 97 -282 5 -19 13 -23 49 -23 50 0 42 -14 110 203 21 64 40 117 43 117 3
0 3 -72 -1 -160 l-7 -160 51 0 50 0 0 210 0 210 -83 0 -83 0 -18 -62 c-49
-173 -58 -200 -65 -192 -8 9 -19 46 -47 158 -25 97 -23 96 -114 96 l-80 0 0
-210z"/>
<path d="M2603 1692 c-50 -24 -63 -63 -63 -192 0 -142 11 -168 79 -193 61 -21
133 -22 187 -1 45 17 59 37 69 97 l6 37 -48 0 c-45 0 -50 -2 -60 -30 -10 -27
-16 -30 -53 -30 -75 0 -80 7 -80 118 0 63 4 102 12 110 7 7 33 12 60 12 42 0
49 -3 62 -28 12 -23 21 -28 53 -29 46 -1 51 5 44 59 -5 34 -13 47 -40 65 -29
20 -46 23 -115 22 -50 -1 -93 -8 -113 -17z"/>
<path d="M3030 1701 c0 -5 -13 -12 -29 -16 -44 -9 -61 -62 -61 -186 0 -132 17
-169 89 -193 63 -20 111 -20 177 1 74 23 94 65 94 198 0 162 -40 205 -192 205
-43 0 -78 -4 -78 -9z m160 -100 c5 -11 10 -58 10 -105 0 -101 -10 -116 -76
-116 -79 0 -84 7 -84 118 0 63 4 102 12 110 7 7 38 12 70 12 46 0 59 -4 68
-19z"/>
</g>
</svg>
